<?xml version="1.0" encoding="utf-8"?>
<!DOCTYPE svg PUBLIC "-//W3C//DTD SVG 1.1//EN" "http://www.w3.org/Graphics/SVG/1.1/DTD/svg11.dtd">
<svg version="1.1" id="LibraryLogo" xmlns="http://www.w3.org/2000/svg" xmlns:xlink="http://www.w3.org/1999/xlink" x="0px" y="0px"
	 width="300px" height="47.929px" viewBox="0 0 300 47.929" enable-background="new 0 0 300 47.929" xml:space="preserve">
<path fill="#FFFFFF" d="M25.485,38.537c-0.029-2.516-0.501-3.051-8.291-5.277l0.593,8.883c0,2.366,2.237,3.279,4.522,4.358
	c2.329,0.986,3.132,1.38,3.171,1.398h0.002h0.002c0,0,0.842-0.416,3.171-1.399c2.287-1.078,4.522-1.991,4.522-4.359l0.592-8.882
	C25.983,35.484,25.511,36.021,25.485,38.537"/>
<path fill="#FFFFFF" d="M25.485,16.221C25.397,8.494,23.95,6.842,0,0l1.82,27.311c0,7.055,6.455,9.903,13.244,13.091
	c-2.134-1.334-3.658-2.983-3.658-5.624l-1.083-16.248c14.248,4.072,15.11,5.055,15.162,9.651c0.051-4.597,0.913-5.579,15.159-9.651
	l-1.083,16.248c0,2.641-1.522,4.29-3.655,5.624c6.789-3.188,13.239-6.038,13.239-13.091L50.967,0
	C27.017,6.842,25.571,8.494,25.485,16.221"/>
<polygon fill="#FFFFFF" points="243.654,28.409 247.914,28.409 247.914,30.227 241.372,30.227 241.372,18.568 243.654,18.568 "/>
<rect x="249.581" y="18.568" fill="#FFFFFF" width="2.264" height="11.658"/>
<path fill="#FFFFFF" d="M254.146,30.227V18.568h3.436c1.202,0,2.142,0.268,2.813,0.801c0.676,0.533,1.016,1.329,1.016,2.387
	c0,0.555-0.123,1.046-0.371,1.478c-0.244,0.431-0.613,0.752-1.105,0.965c0.615,0.144,1.069,0.456,1.364,0.937
	c0.292,0.481,0.439,1.043,0.439,1.689c0,1.115-0.32,1.959-0.958,2.538c-0.638,0.578-1.552,0.864-2.742,0.864H254.146z
	 M256.428,23.494h1.256c0.466-0.012,0.819-0.147,1.068-0.406c0.248-0.259,0.371-0.633,0.371-1.12c0-0.546-0.126-0.945-0.381-1.199
	c-0.259-0.255-0.645-0.381-1.161-0.381h-1.153V23.494z M256.428,25.086v3.323h1.609c0.479,0,0.838-0.132,1.075-0.4
	c0.239-0.265,0.357-0.665,0.357-1.191c0-0.557-0.101-0.982-0.305-1.28c-0.201-0.299-0.528-0.447-0.976-0.447h-1.762V25.086z"/>
<path fill="#FFFFFF" d="M265.932,25.591v4.636h-2.272V18.578h3.804c1.147,0,2.048,0.302,2.701,0.908
	c0.653,0.607,0.98,1.447,0.98,2.526c0,0.608-0.137,1.133-0.407,1.573c-0.271,0.44-0.668,0.792-1.191,1.053
	c0.596,0.203,1.029,0.541,1.292,1.009c0.264,0.472,0.396,1.057,0.396,1.762v0.825c0,0.32,0.038,0.663,0.112,1.029
	c0.074,0.365,0.206,0.632,0.392,0.795v0.17h-2.354c-0.186-0.17-0.303-0.447-0.354-0.832c-0.047-0.385-0.072-0.777-0.072-1.178
	v-0.792c0-0.584-0.118-1.034-0.357-1.353c-0.235-0.322-0.577-0.482-1.021-0.482L265.932,25.591L265.932,25.591z M265.932,23.772
	h1.523c0.462,0,0.815-0.143,1.055-0.424c0.242-0.282,0.363-0.686,0.363-1.208c0-0.534-0.121-0.958-0.363-1.273
	c-0.239-0.316-0.589-0.473-1.047-0.473h-1.531V23.772z"/>
<path fill="#FFFFFF" d="M278.61,27.737h-3.073l-0.626,2.489h-2.297l3.282-11.658h2.37l3.274,11.658h-2.297L278.61,27.737z
	 M276.001,25.918h2.145l-1.05-4.122h-0.047L276.001,25.918z"/>
<path fill="#FFFFFF" d="M285.138,25.591v4.636h-2.272V18.578h3.803c1.148,0,2.05,0.302,2.701,0.908
	c0.654,0.607,0.981,1.447,0.981,2.526c0,0.608-0.137,1.133-0.406,1.573c-0.274,0.44-0.673,0.792-1.196,1.053
	c0.6,0.203,1.029,0.541,1.295,1.009c0.265,0.472,0.396,1.057,0.396,1.762v0.825c0,0.32,0.038,0.663,0.11,1.029
	c0.077,0.365,0.208,0.632,0.394,0.795v0.17h-2.354c-0.187-0.17-0.303-0.447-0.354-0.832c-0.048-0.385-0.072-0.777-0.072-1.178
	v-0.792c0-0.584-0.116-1.034-0.357-1.353c-0.235-0.322-0.578-0.482-1.021-0.482L285.138,25.591L285.138,25.591z M285.138,23.772
	h1.521c0.464,0,0.816-0.143,1.057-0.424c0.242-0.282,0.36-0.686,0.36-1.208c0-0.534-0.118-0.958-0.36-1.273
	c-0.239-0.316-0.589-0.473-1.048-0.473h-1.53V23.772L285.138,23.772z"/>
<polygon fill="#FFFFFF" points="295.771,23.565 295.82,23.565 297.768,18.568 300.238,18.568 296.908,26.079 296.908,30.227 
	294.636,30.227 294.636,25.936 291.361,18.568 293.853,18.568 "/>
<polygon fill="#FFFFFF" points="156.072,25.384 155.079,25.384 155.079,30.227 152.798,30.227 152.798,18.568 155.079,18.568 
	155.079,23.31 155.817,23.31 158.089,18.568 160.885,18.568 157.707,23.895 161.148,30.227 158.38,30.227 "/>
<rect x="162.434" y="18.568" fill="#FFFFFF" width="2.265" height="11.658"/>
<path fill="#FFFFFF" d="M169.278,25.591v4.636h-2.274V18.578h3.805c1.146,0,2.048,0.302,2.702,0.908
	c0.651,0.607,0.98,1.447,0.98,2.526c0,0.608-0.138,1.133-0.408,1.573c-0.274,0.44-0.669,0.792-1.192,1.053
	c0.596,0.203,1.029,0.541,1.293,1.009c0.265,0.472,0.398,1.057,0.398,1.762v0.825c0,0.32,0.038,0.663,0.11,1.029
	c0.076,0.365,0.206,0.632,0.392,0.795v0.17h-2.353c-0.188-0.17-0.305-0.447-0.354-0.832s-0.072-0.777-0.072-1.178v-0.792
	c0-0.584-0.118-1.034-0.355-1.353c-0.237-0.322-0.577-0.482-1.021-0.482L169.278,25.591L169.278,25.591z M169.278,23.772h1.52
	c0.466,0,0.817-0.143,1.059-0.424c0.241-0.282,0.36-0.686,0.36-1.208c0-0.534-0.119-0.958-0.36-1.273
	c-0.241-0.316-0.591-0.473-1.048-0.473h-1.53V23.772z"/>
<path fill="#FFFFFF" d="M180.572,18.568h2.267v8.104c0,1.142-0.322,2.049-0.967,2.718c-0.641,0.669-1.452,1.005-2.429,1.005
	c-1.057,0-1.894-0.3-2.513-0.896c-0.613-0.598-0.914-1.479-0.891-2.643l0.024-0.048h2.218c0,0.613,0.107,1.062,0.324,1.344
	c0.217,0.284,0.495,0.427,0.837,0.427c0.31,0,0.575-0.17,0.797-0.506s0.332-0.804,0.332-1.401V18.568z"/>
<path fill="#FFFFFF" d="M190.07,27.737h-3.073l-0.628,2.489h-2.297l3.285-11.658h2.369L193,30.227h-2.298L190.07,27.737z
	 M187.459,25.918h2.146l-1.048-4.122h-0.049L187.459,25.918z"/>
<path fill="#FFFFFF" d="M199.496,27.185c0-0.456-0.115-0.813-0.354-1.078c-0.235-0.265-0.646-0.524-1.238-0.781
	c-1.215-0.419-2.12-0.898-2.727-1.437c-0.606-0.535-0.91-1.287-0.91-2.253c0-0.955,0.354-1.734,1.059-2.334
	c0.703-0.602,1.603-0.901,2.697-0.901c1.111,0,2.012,0.334,2.708,1.004c0.693,0.669,1.029,1.516,1.007,2.536l-0.016,0.047h-2.211
	c0-0.534-0.131-0.965-0.398-1.296c-0.269-0.332-0.645-0.498-1.129-0.498c-0.456,0-0.808,0.138-1.063,0.413
	c-0.255,0.274-0.379,0.62-0.379,1.036c0,0.383,0.142,0.699,0.422,0.948c0.284,0.248,0.774,0.523,1.477,0.829
	c1.105,0.372,1.937,0.848,2.495,1.42c0.558,0.574,0.835,1.352,0.835,2.325c0,1.01-0.335,1.8-1.007,2.37
	c-0.672,0.572-1.566,0.857-2.684,0.857c-1.108,0-2.072-0.323-2.887-0.974c-0.813-0.647-1.205-1.578-1.181-2.791l0.017-0.048h2.218
	c0,0.721,0.152,1.24,0.456,1.552c0.303,0.317,0.764,0.473,1.377,0.473c0.479,0,0.837-0.128,1.069-0.383
	C199.381,27.969,199.496,27.623,199.496,27.185"/>
<polygon fill="#FFFFFF" points="210.468,20.386 207.842,20.386 207.842,30.227 205.567,30.227 205.567,20.386 202.956,20.386 
	202.956,18.568 210.468,18.568 "/>
<path fill="#FFFFFF" d="M219.607,26.039c0,1.369-0.371,2.436-1.114,3.202c-0.741,0.771-1.729,1.153-2.963,1.153
	s-2.218-0.385-2.955-1.153c-0.736-0.768-1.105-1.835-1.105-3.202v-3.266c0-1.361,0.369-2.431,1.105-3.208
	c0.736-0.776,1.719-1.165,2.945-1.165c1.228,0,2.217,0.389,2.962,1.165c0.747,0.777,1.123,1.847,1.123,3.208v3.266H219.607z
	 M217.339,22.749c0-0.836-0.153-1.466-0.464-1.892s-0.763-0.637-1.354-0.637c-0.597,0-1.047,0.211-1.345,0.633
	c-0.298,0.423-0.447,1.055-0.447,1.896v3.29c0,0.846,0.152,1.483,0.454,1.904c0.305,0.424,0.752,0.636,1.347,0.636
	c0.587,0,1.034-0.212,1.344-0.636c0.309-0.421,0.465-1.059,0.465-1.904L217.339,22.749L217.339,22.749z"/>
<path fill="#FFFFFF" d="M232.059,24.396c0,0.868-0.702,1.57-1.57,1.57c-0.866,0-1.569-0.702-1.569-1.57
	c0-0.867,0.703-1.569,1.569-1.569C231.356,22.829,232.059,23.531,232.059,24.396"/>
<path fill="#FFFFFF" d="M60.795,30.227V18.568h3.436c1.201,0,2.14,0.268,2.813,0.801c0.674,0.533,1.011,1.329,1.011,2.387
	c0,0.555-0.122,1.046-0.369,1.478c-0.246,0.431-0.613,0.752-1.104,0.965c0.613,0.144,1.067,0.456,1.36,0.937
	c0.293,0.481,0.44,1.043,0.44,1.689c0,1.115-0.319,1.959-0.957,2.538c-0.638,0.576-1.552,0.864-2.743,0.864H60.795z M63.077,23.494
	h1.258c0.464-0.012,0.82-0.147,1.068-0.406c0.248-0.259,0.373-0.633,0.373-1.12c0-0.546-0.128-0.945-0.386-1.199
	c-0.255-0.255-0.642-0.381-1.16-0.381h-1.153V23.494z M63.077,25.086v3.323h1.609c0.481,0,0.841-0.132,1.077-0.4
	c0.238-0.265,0.357-0.665,0.357-1.191c0-0.557-0.102-0.982-0.305-1.28c-0.203-0.299-0.529-0.447-0.976-0.447h-1.761V25.086z"/>
<rect x="70.421" y="18.568" fill="#FFFFFF" width="2.266" height="11.658"/>
<path fill="#FFFFFF" d="M74.986,30.227V18.568h3.437c1.201,0,2.14,0.268,2.813,0.801s1.013,1.329,1.013,2.387
	c0,0.555-0.122,1.046-0.369,1.478c-0.246,0.431-0.613,0.752-1.104,0.965c0.613,0.144,1.067,0.456,1.36,0.937
	c0.295,0.481,0.442,1.043,0.442,1.689c0,1.115-0.319,1.959-0.958,2.538c-0.637,0.576-1.552,0.864-2.743,0.864H74.986z
	 M77.268,23.494h1.258c0.464-0.012,0.819-0.147,1.07-0.406c0.248-0.259,0.373-0.633,0.373-1.12c0-0.546-0.128-0.945-0.386-1.199
	c-0.257-0.255-0.644-0.381-1.16-0.381H77.27v3.106H77.268z M77.268,25.086v3.323h1.608c0.481,0,0.84-0.132,1.077-0.4
	c0.238-0.265,0.357-0.665,0.357-1.191c0-0.557-0.102-0.982-0.303-1.28c-0.205-0.299-0.529-0.447-0.978-0.447h-1.761V25.086z"/>
<polygon fill="#FFFFFF" points="86.774,28.409 91.034,28.409 91.034,30.227 84.491,30.227 84.491,18.568 86.774,18.568 "/>
<rect x="92.699" y="18.568" fill="#FFFFFF" width="2.269" height="11.658"/>
<path fill="#FFFFFF" d="M105.121,26.039c0,1.369-0.37,2.436-1.112,3.202c-0.741,0.771-1.729,1.153-2.962,1.153
	s-2.218-0.385-2.954-1.153c-0.738-0.768-1.105-1.835-1.105-3.202v-3.266c0-1.361,0.369-2.431,1.105-3.208
	c0.736-0.776,1.72-1.165,2.947-1.165s2.216,0.389,2.962,1.165c0.747,0.777,1.121,1.847,1.121,3.208v3.266H105.121z M102.856,22.749
	c0-0.836-0.154-1.466-0.465-1.892c-0.309-0.426-0.761-0.637-1.354-0.637c-0.598,0-1.047,0.211-1.346,0.633
	c-0.298,0.423-0.446,1.055-0.446,1.896v3.29c0,0.846,0.15,1.483,0.456,1.904c0.305,0.424,0.754,0.636,1.345,0.636
	c0.589,0,1.036-0.212,1.345-0.636c0.311-0.421,0.465-1.059,0.465-1.904V22.749z"/>
<polygon fill="#FFFFFF" points="113.658,20.386 111.033,20.386 111.033,30.227 108.759,30.227 108.759,20.386 106.147,20.386 
	106.147,18.568 113.658,18.568 "/>
<polygon fill="#FFFFFF" points="121.363,25.11 117.448,25.11 117.448,28.409 122.052,28.409 122.052,30.227 115.166,30.227 
	115.166,18.568 122.036,18.568 122.036,20.386 117.448,20.386 117.448,23.293 121.363,23.293 "/>
<polygon fill="#FFFFFF" points="126.921,25.384 125.928,25.384 125.928,30.227 123.646,30.227 123.646,18.568 125.928,18.568 
	125.928,23.31 126.664,23.31 128.94,18.568 131.734,18.568 128.555,23.895 131.998,30.227 129.228,30.227 "/>
<path fill="#FFFFFF" d="M143.483,24.396c0,0.868-0.702,1.57-1.569,1.57c-0.868,0-1.568-0.702-1.568-1.57
	c0-0.867,0.702-1.569,1.568-1.569C142.781,22.829,143.483,23.531,143.483,24.396"/>
</svg>
