<?xml version="1.0" encoding="utf-8"?>
<!-- Generator: Adobe Illustrator 15.1.0, SVG Export Plug-In  -->
<!DOCTYPE svg PUBLIC "-//W3C//DTD SVG 1.1//EN" "http://www.w3.org/Graphics/SVG/1.1/DTD/svg11.dtd" [
	<!ENTITY ns_flows "http://ns.adobe.com/Flows/1.0/">
]>
<svg version="1.1"
	 xmlns="http://www.w3.org/2000/svg" xmlns:xlink="http://www.w3.org/1999/xlink" xmlns:a="http://ns.adobe.com/AdobeSVGViewerExtensions/3.0/"
	 x="0px" y="0px" width="43px" height="43px" viewBox="0 0 43 43" enable-background="new 0 0 43 43" xml:space="preserve">
<defs>
</defs>
<path fill="#E62683" d="M0,0v43h43V0H0z M15.519,26.269c-2.633,0-4.769-2.136-4.769-4.769c0-2.632,2.135-4.766,4.769-4.766
	c2.633,0,4.769,2.134,4.769,4.766C20.288,24.133,18.151,26.269,15.519,26.269z M27.481,26.269c-2.633,0-4.768-2.136-4.768-4.769
	c0-2.632,2.135-4.766,4.768-4.766c2.634,0,4.769,2.134,4.769,4.766C32.25,24.133,30.115,26.269,27.481,26.269z"/>
</svg>
