<?xml version="1.0" encoding="utf-8"?>
<!-- Generator: Adobe Illustrator 15.1.0, SVG Export Plug-In  -->
<!DOCTYPE svg PUBLIC "-//W3C//DTD SVG 1.1//EN" "http://www.w3.org/Graphics/SVG/1.1/DTD/svg11.dtd" [
	<!ENTITY ns_flows "http://ns.adobe.com/Flows/1.0/">
]>
<svg version="1.1"
	 xmlns="http://www.w3.org/2000/svg" xmlns:xlink="http://www.w3.org/1999/xlink" xmlns:a="http://ns.adobe.com/AdobeSVGViewerExtensions/3.0/"
	 x="0px" y="0px" width="43px" height="43px" viewBox="0 0 43 43" enable-background="new 0 0 43 43" xml:space="preserve">
<defs>
</defs>
<rect display="none" fill="#D83275" width="43" height="43"/>
<path display="none" fill="#FFFFFF" d="M28.479,34.258h-13.96c-3.185,0-5.776-2.592-5.776-5.781V14.519
	c0-3.186,2.591-5.776,5.776-5.776h13.96c3.186,0,5.779,2.59,5.779,5.776v13.958C34.258,31.666,31.664,34.258,28.479,34.258
	 M14.519,11.284c-1.785,0-3.239,1.45-3.239,3.235v13.958c0,1.791,1.454,3.242,3.239,3.242h13.96c1.783,0,3.236-1.451,3.236-3.242
	V14.519c0-1.785-1.453-3.235-3.236-3.235H14.519z M21.498,28.166c-3.635,0-6.592-2.955-6.592-6.593c0-3.635,2.958-6.593,6.592-6.593
	c3.637,0,6.596,2.958,6.596,6.593C28.094,25.211,25.135,28.166,21.498,28.166 M21.498,17.52c-2.237,0-4.053,1.82-4.053,4.053
	c0,2.236,1.816,4.054,4.053,4.054c2.239,0,4.059-1.818,4.059-4.054C25.557,19.34,23.736,17.52,21.498,17.52 M28.342,13.358
	c-0.922,0-1.67,0.747-1.67,1.675c0,0.923,0.748,1.674,1.67,1.674c0.924,0,1.68-0.751,1.68-1.674
	C30.021,14.105,29.266,13.358,28.342,13.358"/>
<path fill="#C91618" d="M0,0v43h43V0H0z M23.721,26.29c-1.333,0-2.588-0.722-3.017-1.541c0,0-0.718,2.845-0.869,3.396
	c-0.536,1.939-2.109,3.882-2.229,4.039c-0.085,0.112-0.274,0.076-0.294-0.068c-0.034-0.249-0.436-2.698,0.037-4.695
	c0.237-1.003,1.589-6.729,1.589-6.729s-0.395-0.787-0.395-1.952c0-1.832,1.062-3.197,2.383-3.197c1.123,0,1.665,0.842,1.665,1.853
	c0,1.131-0.718,2.818-1.09,4.383c-0.31,1.31,0.656,2.378,1.948,2.378c2.34,0,3.916-3.005,3.916-6.564
	c0-2.708-1.822-4.735-5.139-4.735c-3.745,0-6.08,2.795-6.08,5.916c0,1.076,0.317,1.834,0.815,2.422
	c0.229,0.271,0.26,0.378,0.177,0.688c-0.061,0.229-0.194,0.774-0.252,0.992c-0.082,0.313-0.336,0.423-0.618,0.308
	c-1.726-0.704-2.529-2.594-2.529-4.717c0-3.509,2.958-7.716,8.826-7.716c4.715,0,7.818,3.412,7.818,7.076
	C30.384,22.671,27.689,26.29,23.721,26.29z"/>
</svg>
