<?xml version="1.0" encoding="utf-8"?>
<!-- Generator: Adobe Illustrator 15.1.0, SVG Export Plug-In  -->
<!DOCTYPE svg PUBLIC "-//W3C//DTD SVG 1.1//EN" "http://www.w3.org/Graphics/SVG/1.1/DTD/svg11.dtd" [
	<!ENTITY ns_flows "http://ns.adobe.com/Flows/1.0/">
]>
<svg version="1.1"
	 xmlns="http://www.w3.org/2000/svg" xmlns:xlink="http://www.w3.org/1999/xlink" xmlns:a="http://ns.adobe.com/AdobeSVGViewerExtensions/3.0/"
	 x="0px" y="0px" width="43px" height="43px" viewBox="0 0 43 43" enable-background="new 0 0 43 43" xml:space="preserve">
<defs>
</defs>
<rect display="none" fill="#D83275" width="43" height="43"/>
<path display="none" fill="#FFFFFF" d="M28.479,34.258h-13.96c-3.185,0-5.776-2.592-5.776-5.781V14.519
	c0-3.186,2.591-5.776,5.776-5.776h13.96c3.186,0,5.779,2.59,5.779,5.776v13.958C34.258,31.666,31.664,34.258,28.479,34.258
	 M14.519,11.284c-1.785,0-3.239,1.45-3.239,3.235v13.958c0,1.791,1.454,3.242,3.239,3.242h13.96c1.783,0,3.236-1.451,3.236-3.242
	V14.519c0-1.785-1.453-3.235-3.236-3.235H14.519z M21.498,28.166c-3.635,0-6.592-2.955-6.592-6.593c0-3.635,2.958-6.593,6.592-6.593
	c3.637,0,6.596,2.958,6.596,6.593C28.094,25.211,25.135,28.166,21.498,28.166 M21.498,17.52c-2.237,0-4.053,1.82-4.053,4.053
	c0,2.236,1.816,4.054,4.053,4.054c2.239,0,4.059-1.818,4.059-4.054C25.557,19.34,23.736,17.52,21.498,17.52 M28.342,13.358
	c-0.922,0-1.67,0.747-1.67,1.675c0,0.923,0.748,1.674,1.67,1.674c0.924,0,1.68-0.751,1.68-1.674
	C30.021,14.105,29.266,13.358,28.342,13.358"/>
<path fill="#DA4A38" d="M17.852,24.142c-2.545-0.028-4.702,1.609-4.702,3.504c0,1.938,1.839,3.546,4.383,3.546
	c3.578,0,4.825-1.512,4.825-3.446c0-0.233-0.029-0.462-0.082-0.682c-0.28-1.098-1.394-1.696-2.776-2.656
	C18.999,24.244,18.445,24.147,17.852,24.142z"/>
<path fill="#DA4A38" d="M0,0v42.999h43V0H0z M23.143,15.82c0,1.401-0.775,2.53-1.871,3.388c-1.07,0.833-1.272,1.186-1.272,1.894
	c0,0.606,1.278,1.512,1.866,1.953c2.045,1.532,2.46,2.498,2.46,4.419c0,2.394-2.581,4.777-6.778,4.777
	c-3.682,0-6.79-1.499-6.79-3.893c0-2.433,2.577-4.966,6.26-4.966c0.401,0,0.769-0.01,1.149-0.01
	c-0.504-0.491-0.911-0.914-0.911-1.654c0-0.438,0.139-0.857,0.336-1.235c-0.2,0.016-0.404,0.026-0.614,0.026
	c-3.025,0-4.786-2.124-4.786-4.789c0-2.608,2.681-4.979,5.896-4.979c1.657,0,6.337,0,6.337,0l-1.416,1.486h-1.664
	C22.52,12.91,23.143,14.296,23.143,15.82z M32.242,15.43h-2.924v2.923h-1.462V15.43h-2.922v-1.462h2.922v-2.924h1.462v2.924h2.924
	V15.43z"/>
<path fill="#DA4A38" d="M17.134,11.781c-1.708-0.05-2.854,1.667-2.558,3.911c0.294,2.241,1.917,3.807,3.625,3.86
	c1.707,0.05,2.689-1.394,2.395-3.634C20.304,13.674,18.842,11.834,17.134,11.781z"/>
</svg>
