<?xml version="1.0" encoding="utf-8"?>
<!-- Generator: Adobe Illustrator 15.1.0, SVG Export Plug-In . SVG Version: 6.00 Build 0)  -->
<!DOCTYPE svg PUBLIC "-//W3C//DTD SVG 1.1//EN" "http://www.w3.org/Graphics/SVG/1.1/DTD/svg11.dtd">
<svg version="1.1" id="Layer_1" xmlns="http://www.w3.org/2000/svg" xmlns:xlink="http://www.w3.org/1999/xlink" x="0px" y="0px"
	 width="125px" height="29px" viewBox="0 0 125 29" enable-background="new 0 0 125 29" xml:space="preserve">
<g id="S_kifi-logo">
	<path fill="#FFFFFF" d="M27.528,17.046c-3.244,0.036-3.33-1.968-3.309-2.248c0-2.363,1.718-2.75,3.438-2.836
		c1.74,0.128,4.383-1.246,4.253-4.941c-0.267-1.942-1.403-3.098-2.57-3.647c-0.523-0.247-1.053-0.372-1.512-0.391
		c-1.719-0.259-3.738,1.46-3.738,1.46s-0.881,0.515-1.075,2.664c-0.043,2.02-0.666,2.944-2.793,3.223
		c-2.621,0.021-2.514-3.201-2.675-3.652c-0.032-0.526-0.623-3.985-4.49-3.685c-3.506,0.185-3.986,2.74-4.215,4.025
		c-0.201,1.528,0.444,2.926-1.168,3.098c-1.589,0.086-5.65-0.151-5.586,4.683c0,0-0.322,4.362,5.328,4.276
		c1.01,0.192,1.396-0.56,1.504,3.18c0,1.226,0.129,3.589,4.319,3.759c0.387-0.021,3.48,0.303,4.361-3.564
		c0.623-4.168,2.648-3.811,2.648-3.811s2.014-0.529,2.884,4.1c0.075,0.484,0.677,3.02,4.372,3.3c0.56,0.042,4.104,0.063,4.47-4.728
		C32.04,20.189,30.494,17.162,27.528,17.046z M12.542,17.736c-2.644-0.065-2.385-3.145-2.385-3.145s-0.291-2.932,2.353-3.076
		c1.66,0,1.587,2.908,1.587,2.908S14.363,17.833,12.542,17.736z"/>
</g>
<g id="S_kirjastot.fi">
	<g>
		<path fill="#FFFFFF" d="M44.92,18.15c0.04,0.095,0.06,0.158,0.06,0.191c0,0.102-0.07,0.15-0.21,0.15h-1.937
			c-0.08,0-0.164-0.045-0.25-0.131l-2.268-2.93l0.01,2.719c0,0.094-0.035,0.172-0.105,0.236c-0.07,0.063-0.159,0.094-0.266,0.094
			h-1.465c-0.107,0-0.197-0.03-0.271-0.094c-0.073-0.064-0.11-0.144-0.11-0.236l0.01-7.354c0-0.094,0.037-0.172,0.11-0.235
			c0.073-0.063,0.164-0.096,0.271-0.096h1.455c0.1,0,0.187,0.033,0.261,0.101c0.073,0.066,0.11,0.144,0.11,0.23v1.896l1.986-1.947
			c0.107-0.12,0.207-0.195,0.301-0.225c0.094-0.03,0.251-0.046,0.472-0.046h1.505c0.14,0,0.21,0.054,0.21,0.161
			c0,0.061-0.023,0.12-0.07,0.181l-2.769,3.08L44.92,18.15z"/>
		<path fill="#FFFFFF" d="M47.779,12.303c0,0.1-0.037,0.183-0.11,0.246c-0.074,0.063-0.167,0.095-0.281,0.095h-1.605
			c-0.114,0-0.208-0.032-0.281-0.1c-0.074-0.067-0.11-0.147-0.11-0.241v-1.484c0-0.095,0.039-0.176,0.115-0.246
			c0.076-0.07,0.169-0.104,0.276-0.104h1.605c0.107,0,0.199,0.035,0.276,0.104c0.077,0.07,0.115,0.151,0.115,0.246V12.303z
			 M47.779,18.172c0,0.094-0.037,0.174-0.11,0.24c-0.074,0.066-0.164,0.102-0.271,0.102h-1.616c-0.107,0-0.199-0.033-0.276-0.102
			c-0.077-0.066-0.115-0.146-0.115-0.24v-4.284c0-0.094,0.039-0.176,0.115-0.245c0.077-0.07,0.169-0.105,0.276-0.105h1.616
			c0.113,0,0.205,0.039,0.275,0.115c0.07,0.076,0.105,0.155,0.105,0.235L47.779,18.172L47.779,18.172z"/>
		<path fill="#FFFFFF" d="M53.016,10.487c0.743,0.006,1.313,0.223,1.71,0.646c0.398,0.425,0.604,0.936,0.617,1.53v0.04
			c0,0.495-0.08,0.899-0.241,1.214s-0.395,0.603-0.703,0.862c0.615,0.389,0.923,0.85,0.923,1.385l-0.01,2.066
			c0,0.181-0.09,0.271-0.271,0.271l-1.695,0.011c-0.074,0-0.132-0.006-0.175-0.016c-0.044-0.012-0.082-0.037-0.116-0.08
			c-0.033-0.044-0.05-0.109-0.05-0.195l-0.01-1.727c0-0.301-0.075-0.52-0.226-0.657c-0.15-0.137-0.417-0.205-0.798-0.205h-1.404
			l-0.021,2.548c-0.006,0.215-0.083,0.325-0.23,0.332H48.42c-0.06,0-0.116-0.031-0.166-0.096c-0.05-0.064-0.075-0.137-0.075-0.216
			V18.18v-7.345v-0.01c0-0.094,0.042-0.174,0.125-0.24c0.083-0.067,0.183-0.101,0.296-0.101h4.416V10.487z M50.538,13.597
			c0,0.061,0.012,0.106,0.035,0.141c0.023,0.033,0.048,0.05,0.075,0.05l0.04,0.011l1.234-0.011c0.248,0,0.453-0.063,0.617-0.19
			c0.164-0.126,0.246-0.304,0.246-0.532v-0.039c-0.007-0.228-0.097-0.4-0.271-0.517c-0.174-0.117-0.381-0.176-0.622-0.176h-1.364
			L50.538,13.597z"/>
		<path fill="#FFFFFF" d="M59.296,10.487c0.107,0,0.199,0.031,0.276,0.095c0.077,0.064,0.116,0.146,0.116,0.246v4.635
			c0,0.684-0.035,1.186-0.105,1.506c-0.071,0.32-0.176,0.581-0.316,0.782c-0.348,0.501-1.07,0.752-2.167,0.752h-0.953
			c-0.101,0-0.189-0.032-0.266-0.097c-0.077-0.063-0.115-0.141-0.115-0.234v-1.244c0-0.094,0.037-0.175,0.11-0.244
			c0.073-0.072,0.164-0.105,0.271-0.105h0.351c0.441,0,0.706-0.055,0.792-0.161c0.087-0.106,0.13-0.425,0.13-0.953v-4.635
			c0-0.101,0.037-0.182,0.11-0.246c0.073-0.063,0.164-0.095,0.271-0.095L59.296,10.487L59.296,10.487z"/>
		<path fill="#FFFFFF" d="M64.012,10.507c0.488,0,0.943,0.035,1.364,0.105c0.421,0.07,0.823,0.186,1.204,0.346
			c0.381,0.161,0.684,0.394,0.906,0.697c0.225,0.306,0.341,0.664,0.347,1.078v5.559c0,0.134-0.06,0.204-0.181,0.211l-1.926-0.01
			c-0.08,0-0.135-0.017-0.166-0.05c-0.029-0.034-0.049-0.084-0.055-0.151v-2.196h-3.13v2.196c0.007,0.047-0.005,0.095-0.035,0.142
			c-0.031,0.047-0.082,0.069-0.156,0.069l-1.846-0.01c-0.16,0-0.241-0.067-0.241-0.201v-5.598c0-0.415,0.117-0.771,0.351-1.069
			c0.234-0.297,0.55-0.523,0.948-0.677c0.398-0.154,0.81-0.266,1.234-0.336C63.057,10.542,63.518,10.507,64.012,10.507z
			 M62.376,13.155v1.094h3.13v-1.284c0-0.16-0.156-0.311-0.472-0.451c-0.313-0.142-0.687-0.211-1.113-0.211
			c-0.448,0.007-0.817,0.091-1.109,0.25C62.521,12.714,62.376,12.914,62.376,13.155z"/>
		<path fill="#FFFFFF" d="M68.525,17.67l-0.029-0.01c-0.027-0.014-0.048-0.025-0.064-0.035c-0.018-0.01-0.035-0.023-0.056-0.04
			s-0.035-0.038-0.045-0.065c-0.011-0.025-0.015-0.057-0.015-0.09c0-0.066,0.022-0.146,0.07-0.24l0.461-1.145
			c0.055-0.16,0.137-0.207,0.252-0.141c0.012,0.007,0.063,0.039,0.149,0.096s0.147,0.096,0.187,0.115
			c0.037,0.021,0.102,0.057,0.195,0.109s0.174,0.094,0.241,0.121c0.067,0.025,0.151,0.063,0.256,0.109
			c0.104,0.047,0.202,0.082,0.296,0.105s0.197,0.049,0.311,0.074c0.113,0.027,0.234,0.047,0.361,0.055
			c0.127,0.012,0.254,0.017,0.383,0.017c0.508,0,0.854-0.038,1.043-0.115c0.187-0.077,0.28-0.249,0.28-0.519
			c0-0.219-0.081-0.368-0.241-0.444c-0.16-0.077-0.478-0.151-0.953-0.228c-0.026-0.006-0.045-0.008-0.061-0.008
			c-0.842-0.121-1.471-0.27-1.886-0.442c-0.415-0.173-0.729-0.465-0.943-0.872c-0.161-0.302-0.241-0.703-0.241-1.204
			c0-0.549,0.114-1.012,0.342-1.39s0.625-0.654,1.193-0.828c0.401-0.12,0.918-0.181,1.545-0.181c0.543,0,1.041,0.047,1.495,0.141
			c0.448,0.081,0.866,0.231,1.255,0.451c0.086,0.04,0.129,0.114,0.129,0.221c0,0.074-0.017,0.144-0.05,0.211l-0.401,1.104
			c-0.061,0.135-0.131,0.201-0.211,0.201c-0.026,0-0.061-0.01-0.101-0.03l-0.149-0.07c-0.102-0.047-0.168-0.076-0.201-0.09
			c-0.034-0.014-0.104-0.041-0.211-0.081c-0.107-0.04-0.202-0.066-0.286-0.08c-0.084-0.014-0.193-0.031-0.326-0.056
			c-0.134-0.022-0.278-0.039-0.437-0.05c-0.156-0.01-0.326-0.015-0.506-0.015c-0.63,0-0.994,0.104-1.095,0.311
			c-0.026,0.054-0.04,0.141-0.04,0.262c0,0.106,0.014,0.189,0.04,0.25c0.04,0.067,0.097,0.123,0.17,0.166s0.181,0.082,0.321,0.115
			c0.14,0.034,0.285,0.061,0.436,0.08c0.151,0.021,0.363,0.054,0.637,0.101c0.274,0.047,0.539,0.098,0.793,0.15
			c0.81,0.161,1.361,0.506,1.656,1.033c0.153,0.287,0.229,0.669,0.229,1.144c0,0.932-0.204,1.576-0.612,1.938
			c-0.475,0.408-1.341,0.612-2.599,0.612c-0.829,0-1.466-0.084-1.906-0.251C69.27,18.115,68.914,17.925,68.525,17.67z"/>
		<path fill="#FFFFFF" d="M81.779,10.497c0.08,0,0.152,0.021,0.216,0.065c0.063,0.043,0.099,0.111,0.104,0.206v1.284v0.029
			c0,0.154-0.101,0.241-0.301,0.261h-2.058l-0.011,5.881c0,0.205-0.076,0.311-0.229,0.311c-0.228,0-0.528-0.002-0.903-0.006
			c-0.373-0.004-0.672-0.004-0.893-0.004c-0.081,0-0.143-0.021-0.186-0.057c-0.043-0.035-0.069-0.072-0.074-0.105
			c-0.008-0.032-0.01-0.082-0.01-0.149l-0.041-5.869h-2.067c-0.208,0-0.312-0.106-0.312-0.321v-0.02l-0.021-1.164v-0.02
			c0-0.208,0.114-0.312,0.341-0.312L81.779,10.497z"/>
		<path fill="#FFFFFF" d="M82.189,16.125c-0.146-0.469-0.219-1.014-0.219-1.635c0-0.623,0.072-1.167,0.219-1.636
			c0.147-0.469,0.391-0.883,0.729-1.244c0.338-0.361,0.801-0.636,1.391-0.822c0.588-0.186,1.301-0.281,2.137-0.281
			c1.49,0,2.607,0.317,3.352,0.953c0.742,0.636,1.112,1.646,1.112,3.03c0,0.622-0.075,1.167-0.226,1.635
			c-0.149,0.469-0.394,0.883-0.728,1.244s-0.796,0.636-1.386,0.822c-0.588,0.188-1.297,0.281-2.127,0.281
			c-0.842,0-1.559-0.095-2.146-0.281c-0.588-0.188-1.05-0.461-1.384-0.822S82.336,16.594,82.189,16.125z M88.531,14.54
			c0-0.735-0.165-1.282-0.496-1.64s-0.861-0.537-1.592-0.537c-0.781,0-1.323,0.187-1.625,0.563c-0.301,0.374-0.45,0.912-0.45,1.614
			c0,0.709,0.151,1.254,0.456,1.636c0.304,0.381,0.845,0.571,1.619,0.571c0.775,0,1.318-0.194,1.627-0.582
			C88.377,15.777,88.531,15.234,88.531,14.54z"/>
		<path fill="#FFFFFF" d="M97.58,10.497c0.081,0,0.152,0.021,0.216,0.065c0.063,0.043,0.101,0.111,0.104,0.206v1.284v0.029
			c0,0.154-0.1,0.241-0.301,0.261h-2.057l-0.011,5.881c0,0.205-0.076,0.311-0.229,0.311c-0.229,0-0.529-0.002-0.902-0.006
			c-0.375-0.004-0.672-0.004-0.895-0.004c-0.078,0-0.142-0.021-0.186-0.057c-0.043-0.035-0.068-0.072-0.074-0.105
			c-0.007-0.032-0.01-0.082-0.01-0.149l-0.041-5.869h-2.066c-0.207,0-0.311-0.106-0.311-0.321v-0.02l-0.021-1.164v-0.02
			c0-0.208,0.114-0.312,0.342-0.312L97.58,10.497z"/>
		<path fill="#FFFFFF" d="M98.041,16.216c0-0.106,0.045-0.196,0.132-0.271c0.087-0.073,0.187-0.11,0.302-0.11h1.976
			c0.341,0,0.512,0.127,0.512,0.382v1.926c0,0.106-0.035,0.194-0.104,0.262c-0.069,0.066-0.162,0.101-0.274,0.101h-2.106
			c-0.121,0-0.224-0.034-0.308-0.104s-0.126-0.155-0.126-0.256v-1.929H98.041z"/>
		<path fill="#FFFFFF" d="M106.68,12.313h-0.222c-0.201,0-0.362,0.013-0.483,0.035c-0.125,0.024-0.257,0.079-0.396,0.166
			c-0.143,0.087-0.246,0.236-0.316,0.446c-0.072,0.211-0.104,0.479-0.104,0.808h1.514c0.095,0,0.181,0.033,0.256,0.1
			c0.076,0.067,0.115,0.145,0.115,0.231v1.094c0,0.093-0.035,0.174-0.104,0.24c-0.07,0.066-0.158,0.101-0.267,0.101h-1.514v2.608
			c0,0.094-0.039,0.176-0.115,0.246c-0.078,0.069-0.17,0.104-0.276,0.104h-1.646c-0.103,0-0.183-0.03-0.246-0.091
			s-0.103-0.121-0.115-0.18l-0.021-0.092v0.01v-0.039v-2.568h-1.153c-0.114,0-0.208-0.031-0.28-0.096
			c-0.074-0.063-0.111-0.146-0.111-0.246v-1.093c0-0.094,0.041-0.173,0.121-0.236s0.172-0.095,0.271-0.095h1.153
			c0-0.95,0.224-1.706,0.673-2.268c0.2-0.24,0.426-0.437,0.678-0.587c0.25-0.15,0.539-0.256,0.867-0.316
			c0.328-0.06,0.603-0.097,0.821-0.109c0.222-0.014,0.521-0.021,0.902-0.021c0.168,0,0.277,0.052,0.326,0.155
			c0.051,0.104,0.076,0.286,0.076,0.547c0,0.061-0.002,0.18-0.006,0.356c-0.002,0.177-0.004,0.322-0.004,0.437
			c0,0.094-0.039,0.175-0.115,0.246C106.88,12.277,106.787,12.313,106.68,12.313z"/>
		<path fill="#FFFFFF" d="M109.88,12.303c0,0.1-0.037,0.183-0.108,0.246c-0.074,0.063-0.168,0.095-0.283,0.095h-1.604
			c-0.114,0-0.209-0.032-0.28-0.1c-0.072-0.068-0.111-0.147-0.111-0.241v-1.484c0-0.095,0.039-0.176,0.117-0.246
			c0.076-0.07,0.168-0.104,0.274-0.104h1.604c0.107,0,0.199,0.035,0.277,0.104c0.077,0.07,0.114,0.151,0.114,0.246V12.303z
			 M109.88,18.172c0,0.094-0.037,0.174-0.108,0.24c-0.074,0.066-0.164,0.102-0.273,0.102h-1.613c-0.107,0-0.199-0.033-0.275-0.102
			c-0.077-0.066-0.116-0.146-0.116-0.24v-4.284c0-0.094,0.039-0.176,0.116-0.245c0.076-0.07,0.168-0.105,0.275-0.105h1.613
			c0.115,0,0.207,0.039,0.277,0.115c0.07,0.076,0.104,0.155,0.104,0.235V18.172z"/>
	</g>
</g>
<g id="template_iso" display="none">
	
		<image display="inline" overflow="visible" enable-background="new    " width="255" height="50" xlink:href="kirjastotfi-logo-sv.png"  transform="matrix(0.9999 0 0 0.9999 -24.3335 -102.3345)">
	</image>
</g>
</svg>
