<?xml version="1.0" encoding="utf-8"?>
<!-- Generator: Adobe Illustrator 15.1.0, SVG Export Plug-In . SVG Version: 6.00 Build 0)  -->
<!DOCTYPE svg PUBLIC "-//W3C//DTD SVG 1.1//EN" "http://www.w3.org/Graphics/SVG/1.1/DTD/svg11.dtd">
<svg version="1.1" id="Layer_1" xmlns="http://www.w3.org/2000/svg" xmlns:xlink="http://www.w3.org/1999/xlink" x="0px" y="0px"
	 width="125px" height="29px" viewBox="0 0 125 29" enable-background="new 0 0 125 29" xml:space="preserve">
<g id="S_kifi-logo">
	<path fill="#FFFFFF" d="M27.528,17.046c-3.244,0.036-3.33-1.968-3.309-2.248c0-2.363,1.718-2.75,3.438-2.836
		c1.74,0.128,4.383-1.246,4.253-4.941c-0.267-1.942-1.403-3.098-2.57-3.647c-0.523-0.247-1.053-0.372-1.512-0.391
		c-1.719-0.259-3.738,1.46-3.738,1.46s-0.881,0.515-1.075,2.664c-0.043,2.02-0.666,2.944-2.793,3.223
		c-2.621,0.021-2.514-3.201-2.675-3.652c-0.032-0.526-0.623-3.985-4.49-3.685c-3.506,0.185-3.986,2.74-4.215,4.025
		c-0.201,1.528,0.444,2.926-1.168,3.098c-1.589,0.086-5.65-0.151-5.586,4.683c0,0-0.322,4.362,5.328,4.276
		c1.01,0.192,1.396-0.56,1.504,3.18c0,1.226,0.129,3.589,4.319,3.759c0.387-0.021,3.48,0.303,4.361-3.564
		c0.623-4.168,2.648-3.811,2.648-3.811s2.014-0.529,2.884,4.1c0.075,0.484,0.677,3.02,4.372,3.3c0.56,0.042,4.104,0.063,4.47-4.728
		C32.04,20.189,30.494,17.162,27.528,17.046z M12.542,17.736c-2.644-0.065-2.385-3.145-2.385-3.145s-0.291-2.932,2.353-3.076
		c1.66,0,1.587,2.908,1.587,2.908S14.363,17.833,12.542,17.736z"/>
</g>
<g id="S_libraries.fi">
	<g>
		<path fill="#FFFFFF" d="M40.159,10.487c0.094,0.013,0.141,0.076,0.141,0.191v6.033c0.194,0,0.431,0.002,0.709,0.006
			c0.278,0.004,0.521,0.006,0.729,0.006c0.094,0,0.164,0.024,0.211,0.074c0.046,0.051,0.066,0.116,0.06,0.196v1.308
			c0,0.055-0.027,0.104-0.08,0.15c-0.054,0.048-0.111,0.07-0.171,0.07h-3.279c-0.241,0-0.365-0.146-0.372-0.441v-7.413
			c0-0.121,0.057-0.181,0.17-0.181L40.159,10.487L40.159,10.487z"/>
		<path fill="#FFFFFF" d="M44.826,12.308c0,0.101-0.037,0.183-0.111,0.246c-0.074,0.063-0.167,0.095-0.281,0.095h-1.609
			c-0.114,0-0.208-0.032-0.281-0.1c-0.073-0.068-0.111-0.147-0.111-0.241v-1.489c0-0.094,0.039-0.176,0.116-0.247
			c0.077-0.069,0.169-0.105,0.276-0.105h1.609c0.107,0,0.199,0.036,0.277,0.105c0.077,0.071,0.116,0.153,0.116,0.247L44.826,12.308
			L44.826,12.308z M44.826,18.191c0,0.094-0.037,0.174-0.111,0.24c-0.074,0.067-0.164,0.103-0.271,0.103h-1.62
			c-0.107,0-0.199-0.034-0.276-0.103c-0.077-0.068-0.116-0.146-0.116-0.24v-4.296c0-0.093,0.039-0.175,0.116-0.246
			c0.077-0.07,0.169-0.105,0.276-0.105h1.62c0.114,0,0.206,0.039,0.276,0.116c0.07,0.077,0.106,0.155,0.106,0.235V18.191z"/>
		<path fill="#FFFFFF" d="M49.976,10.497c0.986,0,1.706,0.502,2.163,1.509c0.107,0.261,0.161,0.536,0.161,0.824
			c0,0.583-0.228,1.116-0.684,1.599c0.456,0.43,0.684,0.986,0.684,1.67c0,0.932-0.459,1.674-1.378,2.223
			c-0.335,0.129-0.67,0.191-1.006,0.191h-4.154c-0.161,0.006-0.284-0.033-0.367-0.121c-0.084-0.088-0.129-0.211-0.136-0.371V10.97
			c0-0.094,0.043-0.194,0.131-0.302c0.088-0.108,0.201-0.164,0.342-0.171H49.976z M47.109,12.257v1.358h2.706
			c0.462-0.088,0.694-0.318,0.694-0.694c-0.101-0.443-0.288-0.664-0.563-0.664H47.109z M47.109,15.375v1.348h2.646
			c0.503-0.039,0.754-0.281,0.754-0.725c-0.101-0.415-0.312-0.623-0.634-0.623H47.109z"/>
		<path fill="#FFFFFF" d="M57.539,10.487c0.745,0.006,1.316,0.223,1.715,0.648c0.399,0.425,0.605,0.938,0.619,1.533v0.041
			c0,0.496-0.081,0.901-0.241,1.217c-0.161,0.313-0.396,0.604-0.705,0.864c0.617,0.39,0.926,0.853,0.926,1.39l-0.01,2.071
			c0,0.181-0.091,0.271-0.272,0.271l-1.699,0.012c-0.074,0-0.133-0.006-0.176-0.018c-0.043-0.009-0.083-0.035-0.116-0.08
			c-0.033-0.043-0.05-0.108-0.05-0.195l-0.01-1.729c0-0.303-0.075-0.521-0.226-0.66c-0.151-0.137-0.417-0.205-0.8-0.205h-1.408
			l-0.02,2.555c-0.006,0.215-0.083,0.324-0.231,0.333h-1.901c-0.06,0-0.116-0.032-0.166-0.097c-0.05-0.063-0.075-0.137-0.075-0.217
			V18.2v-7.362v-0.011c0-0.093,0.042-0.174,0.125-0.24c0.084-0.067,0.183-0.101,0.297-0.101L57.539,10.487L57.539,10.487z
			 M55.055,13.604c0,0.061,0.012,0.107,0.035,0.142c0.023,0.033,0.048,0.05,0.075,0.05l0.041,0.01l1.237-0.01
			c0.248,0,0.454-0.064,0.618-0.191c0.165-0.127,0.247-0.305,0.247-0.533v-0.04c-0.007-0.228-0.098-0.4-0.271-0.518
			c-0.175-0.118-0.382-0.177-0.624-0.177h-1.368L55.055,13.604z"/>
		<path fill="#FFFFFF" d="M64.208,10.507c0.489,0,0.944,0.035,1.368,0.106c0.422,0.069,0.824,0.186,1.207,0.346
			c0.382,0.162,0.686,0.395,0.91,0.699c0.225,0.306,0.34,0.666,0.347,1.081v5.572c0,0.135-0.062,0.205-0.181,0.213l-1.932-0.012
			c-0.08,0-0.136-0.017-0.166-0.05c-0.031-0.034-0.05-0.084-0.057-0.151v-2.201h-3.138v2.201c0.007,0.049-0.005,0.096-0.035,0.142
			c-0.031,0.048-0.083,0.071-0.156,0.071l-1.851-0.012c-0.161,0-0.241-0.066-0.241-0.201v-5.612c0-0.415,0.117-0.771,0.353-1.07
			c0.234-0.299,0.551-0.525,0.95-0.68c0.398-0.154,0.811-0.267,1.237-0.336C63.251,10.542,63.711,10.507,64.208,10.507z
			 M62.568,13.162v1.096h3.138v-1.287c0-0.16-0.157-0.312-0.472-0.452c-0.316-0.142-0.688-0.211-1.117-0.211
			c-0.45,0.006-0.82,0.09-1.112,0.251C62.714,12.72,62.568,12.921,62.568,13.162z"/>
		<path fill="#FFFFFF" d="M73.291,10.487c0.744,0.006,1.316,0.223,1.715,0.648c0.398,0.426,0.604,0.938,0.618,1.533v0.041
			c0,0.496-0.08,0.901-0.241,1.217c-0.16,0.313-0.396,0.604-0.703,0.864c0.616,0.39,0.924,0.853,0.924,1.39l-0.01,2.071
			c0,0.181-0.09,0.271-0.271,0.271l-1.699,0.012c-0.074,0-0.132-0.006-0.176-0.018c-0.043-0.009-0.082-0.035-0.115-0.08
			c-0.034-0.043-0.051-0.108-0.051-0.195l-0.01-1.729c0-0.303-0.076-0.521-0.227-0.66c-0.15-0.137-0.418-0.205-0.8-0.205h-1.408
			l-0.021,2.555c-0.006,0.215-0.082,0.324-0.23,0.333h-1.9c-0.062,0-0.117-0.032-0.168-0.097c-0.05-0.063-0.074-0.137-0.074-0.217
			V18.2v-7.362v-0.011c0-0.093,0.041-0.174,0.125-0.24c0.084-0.067,0.183-0.101,0.298-0.101L73.291,10.487L73.291,10.487z
			 M70.807,13.604c0,0.061,0.012,0.107,0.034,0.142c0.022,0.033,0.048,0.05,0.076,0.05l0.04,0.01l1.236-0.01
			c0.248,0,0.455-0.064,0.619-0.191s0.246-0.305,0.246-0.533v-0.04c-0.007-0.228-0.097-0.4-0.271-0.518
			c-0.175-0.118-0.382-0.177-0.624-0.177h-1.368L70.807,13.604z"/>
		<path fill="#FFFFFF" d="M78.43,12.308c0,0.101-0.037,0.183-0.109,0.246c-0.073,0.063-0.168,0.095-0.282,0.095H76.43
			c-0.115,0-0.209-0.032-0.283-0.1c-0.073-0.068-0.11-0.147-0.11-0.241v-1.489c0-0.094,0.039-0.176,0.116-0.247
			c0.076-0.069,0.168-0.105,0.277-0.105h1.608c0.106,0,0.198,0.036,0.276,0.105c0.076,0.071,0.115,0.153,0.115,0.247V12.308z
			 M78.43,18.191c0,0.094-0.037,0.174-0.109,0.24c-0.073,0.067-0.166,0.103-0.272,0.103H76.43c-0.107,0-0.201-0.034-0.277-0.103
			c-0.077-0.066-0.116-0.146-0.116-0.24v-4.296c0-0.093,0.039-0.175,0.116-0.246c0.076-0.07,0.168-0.105,0.277-0.105h1.618
			c0.114,0,0.207,0.039,0.277,0.116c0.069,0.077,0.104,0.155,0.104,0.235V18.191z"/>
		<path fill="#FFFFFF" d="M85.773,10.487c0.146,0.013,0.228,0.094,0.24,0.24v1.821c0,0.247-0.101,0.369-0.302,0.362h-4.214
			c-0.281,0.04-0.422,0.194-0.422,0.462v0.282h4.748c0.127,0.007,0.191,0.084,0.191,0.231v1.317
			c-0.008,0.134-0.067,0.208-0.182,0.221h-4.777v0.231c0,0.209,0.047,0.354,0.141,0.438s0.238,0.125,0.432,0.125h4.074
			c0.113,0,0.193,0.025,0.236,0.075c0.043,0.052,0.067,0.133,0.076,0.247v1.6c-0.015,0.241-0.102,0.368-0.262,0.383h-4.929
			c-0.933,0-1.556-0.526-1.871-1.58c-0.074-0.248-0.111-0.448-0.111-0.604v-3.45c0-0.43,0.058-0.805,0.171-1.127
			c0.107-0.314,0.266-0.559,0.473-0.733c0.207-0.175,0.421-0.304,0.639-0.388s0.488-0.136,0.811-0.155h4.838V10.487z"/>
		<path fill="#FFFFFF" d="M86.708,17.688l-0.03-0.008c-0.027-0.015-0.048-0.025-0.064-0.035c-0.018-0.012-0.035-0.023-0.055-0.041
			c-0.021-0.018-0.035-0.039-0.045-0.064c-0.011-0.027-0.016-0.059-0.016-0.092c0-0.066,0.023-0.146,0.07-0.241l0.463-1.146
			c0.054-0.16,0.138-0.209,0.251-0.142c0.014,0.007,0.063,0.039,0.151,0.097c0.086,0.057,0.148,0.096,0.186,0.114
			c0.037,0.021,0.104,0.058,0.195,0.111c0.095,0.053,0.174,0.094,0.242,0.12c0.066,0.027,0.152,0.063,0.256,0.111
			c0.104,0.047,0.203,0.082,0.297,0.104c0.093,0.022,0.197,0.049,0.312,0.075c0.114,0.025,0.233,0.045,0.362,0.056
			c0.127,0.011,0.255,0.015,0.382,0.015c0.51,0,0.858-0.037,1.046-0.115c0.188-0.076,0.282-0.25,0.282-0.519
			c0-0.222-0.081-0.37-0.242-0.446c-0.16-0.078-0.479-0.152-0.955-0.228c-0.026-0.007-0.047-0.011-0.062-0.011
			c-0.844-0.12-1.475-0.268-1.891-0.441c-0.416-0.175-0.73-0.467-0.945-0.876c-0.162-0.301-0.241-0.703-0.241-1.207
			c0-0.55,0.114-1.014,0.342-1.393c0.228-0.379,0.627-0.655,1.196-0.83c0.402-0.12,0.918-0.181,1.55-0.181
			c0.543,0,1.042,0.047,1.499,0.141c0.449,0.081,0.869,0.231,1.257,0.453c0.087,0.04,0.131,0.114,0.131,0.222
			c0,0.073-0.017,0.144-0.05,0.211l-0.402,1.105c-0.061,0.135-0.131,0.202-0.211,0.202c-0.027,0-0.06-0.011-0.101-0.031
			l-0.151-0.069c-0.1-0.047-0.167-0.077-0.201-0.091c-0.033-0.014-0.104-0.04-0.211-0.08c-0.106-0.04-0.203-0.067-0.287-0.081
			s-0.192-0.031-0.326-0.056c-0.135-0.023-0.28-0.04-0.438-0.05c-0.157-0.01-0.327-0.016-0.508-0.016
			c-0.63,0-0.996,0.104-1.097,0.312c-0.026,0.055-0.041,0.142-0.041,0.263c0,0.106,0.014,0.19,0.041,0.251
			c0.041,0.067,0.098,0.122,0.172,0.166c0.074,0.043,0.181,0.082,0.322,0.116c0.141,0.033,0.287,0.06,0.438,0.08
			s0.363,0.054,0.639,0.101s0.54,0.098,0.795,0.15c0.812,0.162,1.364,0.507,1.659,1.036c0.154,0.289,0.231,0.671,0.231,1.146
			c0,0.934-0.205,1.58-0.613,1.941c-0.477,0.408-1.346,0.613-2.605,0.613c-0.83,0-1.468-0.084-1.91-0.252
			C87.452,18.134,87.098,17.943,86.708,17.688z"/>
		<path fill="#FFFFFF" d="M93.275,16.229c0-0.106,0.045-0.197,0.132-0.271s0.188-0.11,0.302-0.11h1.98
			c0.343,0,0.514,0.127,0.514,0.383v1.932c0,0.107-0.035,0.193-0.105,0.262c-0.07,0.067-0.162,0.102-0.277,0.102h-2.111
			c-0.121,0-0.223-0.035-0.307-0.105s-0.127-0.156-0.127-0.257V16.229z"/>
		<path fill="#FFFFFF" d="M101.936,12.317h-0.221c-0.201,0-0.363,0.012-0.488,0.035c-0.123,0.023-0.256,0.079-0.396,0.166
			s-0.247,0.236-0.316,0.447c-0.07,0.211-0.106,0.481-0.106,0.81h1.519c0.094,0,0.18,0.034,0.258,0.101
			c0.076,0.067,0.114,0.145,0.114,0.232v1.096c0,0.094-0.034,0.174-0.104,0.241c-0.07,0.066-0.159,0.101-0.268,0.101h-1.519v2.615
			c0,0.095-0.038,0.176-0.115,0.245c-0.077,0.07-0.169,0.105-0.276,0.105h-1.649c-0.101,0-0.183-0.029-0.246-0.09
			s-0.103-0.121-0.116-0.182l-0.02-0.09v0.01v-0.04v-2.575h-1.156c-0.115,0-0.208-0.031-0.282-0.096
			c-0.073-0.064-0.11-0.146-0.11-0.246v-1.096c0-0.095,0.041-0.173,0.121-0.237c0.082-0.063,0.172-0.096,0.272-0.096h1.155
			c0-0.952,0.226-1.71,0.675-2.272c0.2-0.242,0.427-0.438,0.679-0.589c0.251-0.151,0.541-0.257,0.87-0.317
			c0.329-0.06,0.604-0.097,0.825-0.109c0.221-0.014,0.523-0.021,0.904-0.021c0.168,0,0.276,0.053,0.328,0.156
			c0.051,0.104,0.074,0.287,0.074,0.549c0,0.06,0,0.18-0.004,0.356c-0.003,0.178-0.005,0.324-0.005,0.438
			c0,0.093-0.039,0.175-0.116,0.246C102.137,12.282,102.043,12.317,101.936,12.317z"/>
		<path fill="#FFFFFF" d="M105.145,12.308c0,0.101-0.037,0.183-0.11,0.246c-0.074,0.063-0.168,0.095-0.281,0.095h-1.61
			c-0.113,0-0.207-0.032-0.281-0.1c-0.073-0.068-0.108-0.147-0.108-0.241v-1.489c0-0.094,0.037-0.176,0.115-0.247
			c0.075-0.069,0.17-0.105,0.274-0.105h1.61c0.106,0,0.199,0.036,0.274,0.105c0.078,0.071,0.117,0.153,0.117,0.247V12.308z
			 M105.145,18.191c0,0.094-0.037,0.174-0.11,0.24c-0.074,0.067-0.164,0.103-0.271,0.103h-1.621c-0.104,0-0.199-0.034-0.274-0.103
			c-0.078-0.066-0.115-0.146-0.115-0.24v-4.296c0-0.093,0.037-0.175,0.115-0.246c0.075-0.07,0.17-0.105,0.274-0.105h1.621
			c0.112,0,0.207,0.039,0.276,0.116c0.069,0.077,0.104,0.155,0.104,0.235V18.191z"/>
	</g>
</g>
<g id="template_iso" display="none">
	
		<image display="inline" overflow="visible" enable-background="new    " width="255" height="50" xlink:href="kirjastotfi-logo-sv.png"  transform="matrix(0.9999 0 0 0.9999 -24.3335 -157.3345)">
	</image>
</g>
</svg>
