<?xml version="1.0" encoding="utf-8"?>
<!-- Generator: Adobe Illustrator 15.1.0, SVG Export Plug-In . SVG Version: 6.00 Build 0)  -->
<!DOCTYPE svg PUBLIC "-//W3C//DTD SVG 1.1//EN" "http://www.w3.org/Graphics/SVG/1.1/DTD/svg11.dtd">
<svg version="1.1" id="Layer_1" xmlns="http://www.w3.org/2000/svg" xmlns:xlink="http://www.w3.org/1999/xlink" x="0px" y="0px"
	 width="125px" height="29px" viewBox="0 0 125 29" enable-background="new 0 0 125 29" xml:space="preserve">
<g id="S_kifi-logo">
	<path fill="#FFFFFF" d="M27.528,17.046c-3.244,0.036-3.33-1.968-3.309-2.248c0-2.363,1.718-2.75,3.438-2.836
		c1.74,0.128,4.383-1.246,4.253-4.941c-0.267-1.942-1.403-3.098-2.57-3.647c-0.523-0.247-1.053-0.372-1.512-0.391
		c-1.719-0.259-3.738,1.46-3.738,1.46s-0.881,0.515-1.075,2.664c-0.043,2.02-0.666,2.944-2.793,3.223
		c-2.621,0.021-2.514-3.201-2.675-3.652c-0.032-0.526-0.623-3.985-4.49-3.685c-3.506,0.185-3.986,2.74-4.215,4.025
		c-0.201,1.528,0.444,2.926-1.168,3.098c-1.589,0.086-5.65-0.151-5.586,4.683c0,0-0.322,4.362,5.328,4.276
		c1.01,0.192,1.396-0.56,1.504,3.18c0,1.226,0.129,3.589,4.319,3.759c0.387-0.021,3.48,0.303,4.361-3.564
		c0.623-4.168,2.648-3.811,2.648-3.811s2.014-0.529,2.884,4.1c0.075,0.484,0.677,3.02,4.372,3.3c0.56,0.042,4.104,0.063,4.47-4.728
		C32.04,20.189,30.494,17.162,27.528,17.046z M12.542,17.736c-2.644-0.065-2.385-3.145-2.385-3.145s-0.291-2.932,2.353-3.076
		c1.66,0,1.587,2.908,1.587,2.908S14.363,17.833,12.542,17.736z"/>
</g>
<g id="S_biblioteken.fi">
	<g>
		<path d="M-53.376-83.001L-53.376-83.001L-53.376-83.001L-53.376-83.001L-53.376-83.001L-53.376-83.001L-53.376-83.001
			L-53.376-83.001L-53.376-83.001L-53.376-83.001L-53.376-83.001L-53.376-83.001L-53.376-83.001L-53.376-83.001z M-53.376-83.001
			L-53.376-83.001L-53.376-83.001L-53.376-83.001L-53.376-83.001L-53.376-83.001z M-53.376-83.001L-53.376-83.001L-53.376-83.001
			L-53.376-83.001L-53.376-83.001L-53.376-83.001z"/>
		<path d="M-53.376-83.001L-53.376-83.001L-53.376-83.001L-53.376-83.001L-53.376-83.001L-53.376-83.001L-53.376-83.001
			L-53.376-83.001L-53.376-83.001L-53.376-83.001L-53.376-83.001L-53.376-83.001L-53.376-83.001z M-53.376-83.001L-53.376-83.001
			L-53.376-83.001L-53.376-83.001L-53.376-83.001L-53.376-83.001L-53.376-83.001L-53.376-83.001L-53.376-83.001L-53.376-83.001
			L-53.376-83.001L-53.376-83.001L-53.376-83.001z"/>
		<path d="M-53.376-83.001L-53.376-83.001L-53.376-83.001L-53.376-83.001L-53.376-83.001L-53.376-83.001L-53.376-83.001
			L-53.376-83.001L-53.376-83.001L-53.376-83.001L-53.376-83.001L-53.376-83.001L-53.376-83.001L-53.376-83.001z M-53.376-83.001
			L-53.376-83.001L-53.376-83.001L-53.376-83.001L-53.376-83.001L-53.376-83.001z M-53.376-83.001L-53.376-83.001L-53.376-83.001
			L-53.376-83.001L-53.376-83.001L-53.376-83.001z"/>
		<path d="M-53.376-83.001L-53.376-83.001L-53.376-83.001L-53.376-83.001L-53.376-83.001L-53.376-83.001L-53.376-83.001
			L-53.376-83.001L-53.376-83.001L-53.376-83.001L-53.376-83.001L-53.376-83.001L-53.376-83.001L-53.376-83.001L-53.376-83.001z"/>
		<path d="M-53.376-83.001L-53.376-83.001L-53.376-83.001L-53.376-83.001L-53.376-83.001L-53.376-83.001L-53.376-83.001
			L-53.376-83.001L-53.376-83.001L-53.376-83.001L-53.376-83.001L-53.376-83.001L-53.376-83.001z M-53.376-83.001L-53.376-83.001
			L-53.376-83.001L-53.376-83.001L-53.376-83.001L-53.376-83.001L-53.376-83.001L-53.376-83.001L-53.376-83.001L-53.376-83.001
			L-53.376-83.001L-53.376-83.001L-53.376-83.001z"/>
		<path d="M-53.376-83.001L-53.376-83.001L-53.376-83.001L-53.376-83.001L-53.376-83.001L-53.376-83.001L-53.376-83.001
			L-53.376-83.001L-53.376-83.001L-53.376-83.001L-53.376-83.001L-53.376-83.001L-53.376-83.001L-53.376-83.001L-53.376-83.001z
			 M-53.376-83.001L-53.376-83.001L-53.376-83.001L-53.376-83.001L-53.376-83.001L-53.376-83.001L-53.376-83.001L-53.376-83.001
			L-53.376-83.001z"/>
		<path d="M-53.376-83.001L-53.376-83.001L-53.376-83.001L-53.376-83.001L-53.376-83.001L-53.376-83.001L-53.376-83.001
			L-53.376-83.001L-53.376-83.001L-53.376-83.001L-53.376-83.001L-53.376-83.001L-53.376-83.001L-53.376-83.001L-53.376-83.001
			L-53.376-83.001L-53.376-83.001L-53.376-83.001L-53.376-83.001L-53.376-83.001L-53.376-83.001L-53.376-83.001z"/>
		<path d="M-53.376-83.001L-53.376-83.001L-53.376-83.001L-53.376-83.001L-53.376-83.001L-53.376-83.001L-53.376-83.001
			L-53.376-83.001L-53.376-83.001L-53.376-83.001L-53.376-83.001L-53.376-83.001L-53.376-83.001L-53.376-83.001L-53.376-83.001
			L-53.376-83.001L-53.376-83.001L-53.376-83.001L-53.376-83.001L-53.376-83.001L-53.376-83.001L-53.376-83.001L-53.376-83.001
			L-53.376-83.001L-53.376-83.001L-53.376-83.001L-53.376-83.001L-53.376-83.001L-53.376-83.001z"/>
		<path d="M-53.376-83.001L-53.376-83.001L-53.376-83.001L-53.376-83.001L-53.376-83.001L-53.376-83.001L-53.376-83.001
			L-53.376-83.001L-53.376-83.001L-53.376-83.001L-53.376-83.001L-53.376-83.001L-53.376-83.001L-53.376-83.001L-53.376-83.001
			L-53.376-83.001L-53.376-83.001L-53.376-83.001L-53.376-83.001L-53.376-83.001L-53.376-83.001L-53.376-83.001L-53.376-83.001
			L-53.376-83.001L-53.376-83.001L-53.376-83.001L-53.376-83.001z"/>
		<path d="M-53.376-83.001L-53.376-83.001L-53.376-83.001L-53.376-83.001L-53.376-83.001L-53.376-83.001L-53.376-83.001
			L-53.376-83.001L-53.376-83.001L-53.376-83.001L-53.376-83.001L-53.376-83.001L-53.376-83.001L-53.376-83.001L-53.376-83.001
			L-53.376-83.001L-53.376-83.001L-53.376-83.001L-53.376-83.001L-53.376-83.001L-53.376-83.001L-53.376-83.001L-53.376-83.001
			L-53.376-83.001L-53.376-83.001L-53.376-83.001L-53.376-83.001L-53.376-83.001L-53.376-83.001z"/>
		<path d="M-53.376-83.001L-53.376-83.001L-53.376-83.001L-53.376-83.001L-53.376-83.001L-53.376-83.001L-53.376-83.001
			L-53.376-83.001L-53.376-83.001L-53.376-83.001L-53.376-83.001L-53.376-83.001L-53.376-83.001L-53.376-83.001L-53.376-83.001
			L-53.376-83.001L-53.376-83.001L-53.376-83.001L-53.376-83.001L-53.376-83.001L-53.376-83.001L-53.376-83.001L-53.376-83.001
			L-53.376-83.001L-53.376-83.001L-53.376-83.001L-53.376-83.001z"/>
		<path d="M-53.376-83.001L-53.376-83.001L-53.376-83.001L-53.376-83.001L-53.376-83.001L-53.376-83.001L-53.376-83.001
			L-53.376-83.001L-53.376-83.001L-53.376-83.001L-53.376-83.001L-53.376-83.001z"/>
		<path d="M-53.376-83.001L-53.376-83.001L-53.376-83.001L-53.376-83.001L-53.376-83.001L-53.376-83.001L-53.376-83.001
			L-53.376-83.001L-53.376-83.001L-53.376-83.001L-53.376-83.001L-53.376-83.001L-53.376-83.001L-53.376-83.001L-53.376-83.001
			L-53.376-83.001L-53.376-83.001L-53.376-83.001L-53.376-83.001L-53.376-83.001L-53.376-83.001L-53.376-83.001L-53.376-83.001
			L-53.376-83.001L-53.376-83.001L-53.376-83.001L-53.376-83.001L-53.376-83.001L-53.376-83.001L-53.376-83.001L-53.376-83.001
			L-53.376-83.001L-53.376-83.001L-53.376-83.001L-53.376-83.001L-53.376-83.001L-53.376-83.001L-53.376-83.001L-53.376-83.001
			L-53.376-83.001L-53.376-83.001z"/>
		<path d="M-53.376-83.001L-53.376-83.001L-53.376-83.001L-53.376-83.001L-53.376-83.001L-53.376-83.001L-53.376-83.001
			L-53.376-83.001L-53.376-83.001L-53.376-83.001L-53.376-83.001L-53.376-83.001L-53.376-83.001z M-53.376-83.001L-53.376-83.001
			L-53.376-83.001L-53.376-83.001L-53.376-83.001L-53.376-83.001L-53.376-83.001L-53.376-83.001L-53.376-83.001L-53.376-83.001
			L-53.376-83.001L-53.376-83.001L-53.376-83.001z"/>
	</g>
	<g>
		<path fill="#FFFFFF" d="M42.813,10.497c0.983,0,1.702,0.501,2.158,1.505c0.106,0.261,0.16,0.535,0.16,0.822
			c0,0.582-0.227,1.113-0.682,1.596c0.455,0.428,0.682,0.982,0.682,1.666c0,0.93-0.458,1.668-1.375,2.217
			c-0.334,0.129-0.669,0.191-1.003,0.191h-4.144c-0.16,0.006-0.283-0.034-0.366-0.121s-0.129-0.211-0.135-0.371v-7.033
			c0-0.094,0.043-0.194,0.13-0.301c0.087-0.107,0.201-0.164,0.341-0.171H42.813z M39.954,12.252v1.355h2.699
			c0.461-0.088,0.692-0.317,0.692-0.693c-0.101-0.441-0.288-0.662-0.562-0.662H39.954z M39.954,15.363v1.344h2.639
			c0.502-0.039,0.753-0.281,0.753-0.723c-0.101-0.414-0.311-0.621-0.632-0.621H39.954z"/>
		<path fill="#FFFFFF" d="M47.92,12.303c0,0.101-0.037,0.183-0.11,0.246c-0.073,0.063-0.167,0.095-0.281,0.095h-1.605
			c-0.114,0-0.208-0.032-0.281-0.1c-0.073-0.068-0.11-0.147-0.11-0.241v-1.485c0-0.093,0.039-0.175,0.116-0.246
			c0.077-0.069,0.169-0.104,0.276-0.104h1.605c0.106,0,0.199,0.035,0.276,0.104c0.077,0.071,0.115,0.153,0.115,0.246L47.92,12.303
			L47.92,12.303z M47.92,18.172c0,0.096-0.037,0.176-0.11,0.242c-0.074,0.066-0.164,0.1-0.271,0.1h-1.615
			c-0.107,0-0.199-0.033-0.276-0.1s-0.116-0.146-0.116-0.242v-4.284c0-0.093,0.039-0.175,0.116-0.246
			c0.077-0.069,0.169-0.104,0.276-0.104h1.615c0.114,0,0.206,0.039,0.276,0.115c0.07,0.077,0.105,0.155,0.105,0.235V18.172z"/>
		<path fill="#FFFFFF" d="M53.058,10.497c0.983,0,1.702,0.501,2.157,1.505c0.107,0.261,0.161,0.535,0.161,0.822
			c0,0.582-0.228,1.113-0.682,1.596c0.455,0.428,0.682,0.982,0.682,1.666c0,0.93-0.458,1.668-1.375,2.217
			c-0.335,0.129-0.669,0.191-1.003,0.191h-4.144c-0.161,0.006-0.283-0.034-0.366-0.121s-0.129-0.211-0.136-0.371v-7.033
			c0-0.094,0.044-0.194,0.131-0.301c0.086-0.107,0.201-0.164,0.341-0.171H53.058z M50.198,12.252v1.355h2.699
			c0.461-0.088,0.692-0.317,0.692-0.693c-0.1-0.441-0.288-0.662-0.562-0.662H50.198z M50.198,15.363v1.344h2.639
			c0.501-0.039,0.752-0.281,0.752-0.723c-0.1-0.414-0.311-0.621-0.632-0.621H50.198z"/>
		<path fill="#FFFFFF" d="M57.844,10.486c0.094,0.014,0.141,0.077,0.141,0.191v6.02c0.194,0,0.43,0.002,0.708,0.006
			c0.277,0.003,0.52,0.004,0.727,0.004c0.094,0,0.164,0.025,0.211,0.076c0.047,0.05,0.067,0.115,0.06,0.195v1.305
			c0,0.053-0.027,0.104-0.08,0.15c-0.054,0.047-0.11,0.069-0.171,0.069h-3.271c-0.241,0-0.365-0.147-0.371-0.44v-7.396
			c0-0.121,0.057-0.182,0.17-0.182L57.844,10.486L57.844,10.486z"/>
		<path fill="#FFFFFF" d="M62.5,12.303c0,0.101-0.037,0.183-0.111,0.246c-0.073,0.063-0.167,0.095-0.281,0.095h-1.605
			c-0.113,0-0.207-0.032-0.281-0.1c-0.073-0.067-0.11-0.147-0.11-0.241v-1.485c0-0.093,0.038-0.175,0.116-0.246
			c0.077-0.069,0.168-0.104,0.275-0.104h1.605c0.107,0,0.199,0.035,0.276,0.104c0.077,0.071,0.115,0.153,0.115,0.246L62.5,12.303
			L62.5,12.303z M62.5,18.172c0,0.096-0.037,0.176-0.111,0.242c-0.073,0.066-0.164,0.1-0.271,0.1h-1.616
			c-0.107,0-0.199-0.033-0.275-0.1c-0.078-0.066-0.116-0.146-0.116-0.242v-4.284c0-0.093,0.038-0.175,0.116-0.246
			c0.077-0.069,0.168-0.104,0.275-0.104h1.616c0.114,0,0.206,0.039,0.276,0.115c0.07,0.077,0.105,0.155,0.105,0.235L62.5,18.172
			L62.5,18.172z"/>
		<path fill="#FFFFFF" d="M63.131,16.125c-0.147-0.469-0.221-1.014-0.221-1.635s0.074-1.167,0.221-1.635
			c0.146-0.469,0.391-0.885,0.729-1.244c0.336-0.361,0.801-0.637,1.39-0.824s1.301-0.281,2.138-0.281
			c1.491,0,2.608,0.319,3.35,0.954c0.744,0.635,1.115,1.646,1.115,3.03c0,0.622-0.076,1.167-0.227,1.635s-0.393,0.883-0.729,1.244
			c-0.334,0.361-0.795,0.637-1.385,0.824c-0.588,0.187-1.297,0.279-2.127,0.279c-0.843,0-1.559-0.094-2.146-0.279
			c-0.588-0.188-1.051-0.463-1.385-0.824S63.279,16.594,63.131,16.125z M69.473,14.541c0-0.736-0.166-1.284-0.496-1.642
			c-0.332-0.358-0.861-0.536-1.59-0.536c-0.783,0-1.326,0.188-1.625,0.562c-0.302,0.374-0.453,0.913-0.453,1.616
			c0,0.708,0.152,1.254,0.457,1.635s0.844,0.572,1.621,0.572c0.775,0,1.317-0.193,1.625-0.582
			C69.318,15.777,69.473,15.236,69.473,14.541z"/>
		<path fill="#FFFFFF" d="M78.684,10.497c0.08,0,0.152,0.021,0.217,0.065c0.063,0.043,0.099,0.111,0.104,0.205v1.285v0.029
			c0,0.153-0.101,0.241-0.301,0.261h-2.058l-0.01,5.881c0,0.207-0.076,0.311-0.23,0.311c-0.227,0-0.528-0.002-0.903-0.004
			c-0.375-0.004-0.672-0.006-0.894-0.006c-0.08,0-0.142-0.02-0.186-0.055c-0.044-0.037-0.068-0.072-0.074-0.105
			c-0.008-0.033-0.011-0.084-0.011-0.15l-0.04-5.87h-2.066c-0.209,0-0.312-0.107-0.312-0.321v-0.02L71.9,10.838v-0.021
			c0-0.207,0.115-0.312,0.342-0.312L78.684,10.497z"/>
		<path fill="#FFFFFF" d="M85.998,10.486c0.146,0.014,0.229,0.095,0.24,0.24v1.817c0,0.247-0.1,0.368-0.301,0.361h-4.203
			c-0.281,0.04-0.422,0.193-0.422,0.461v0.281h4.736c0.127,0.007,0.189,0.084,0.189,0.231v1.313
			c-0.006,0.135-0.065,0.209-0.18,0.222h-4.766v0.231c0,0.207,0.047,0.353,0.141,0.437s0.237,0.124,0.432,0.124h4.063
			c0.114,0,0.192,0.025,0.236,0.076c0.043,0.05,0.068,0.132,0.074,0.246v1.595c-0.012,0.241-0.1,0.368-0.26,0.382h-4.918
			c-0.93,0-1.552-0.525-1.865-1.576c-0.073-0.246-0.11-0.447-0.11-0.602v-3.441c0-0.429,0.058-0.803,0.17-1.124
			c0.106-0.313,0.265-0.558,0.472-0.731c0.209-0.175,0.42-0.303,0.637-0.387c0.218-0.084,0.486-0.137,0.809-0.156L85.998,10.486
			L85.998,10.486z"/>
		<path fill="#FFFFFF" d="M93.453,18.152c0.041,0.094,0.061,0.156,0.061,0.189c0,0.102-0.07,0.151-0.211,0.151h-1.937
			c-0.08,0-0.164-0.044-0.251-0.132l-2.268-2.93l0.01,2.719c0,0.095-0.035,0.174-0.105,0.236c-0.07,0.063-0.159,0.096-0.266,0.096
			h-1.465c-0.107,0-0.197-0.031-0.271-0.096c-0.072-0.063-0.109-0.143-0.109-0.236l0.01-7.354c0-0.094,0.037-0.172,0.109-0.235
			c0.074-0.064,0.164-0.096,0.271-0.096h1.455c0.101,0,0.188,0.033,0.261,0.1s0.11,0.145,0.11,0.231v1.896l1.985-1.945
			c0.107-0.121,0.208-0.196,0.302-0.226c0.094-0.031,0.25-0.046,0.472-0.046h1.505c0.141,0,0.211,0.054,0.211,0.16
			c0,0.061-0.023,0.121-0.07,0.181l-2.77,3.081L93.453,18.152z"/>
		<path fill="#FFFFFF" d="M100.838,10.486c0.146,0.014,0.227,0.095,0.241,0.24v1.817c0,0.247-0.101,0.368-0.302,0.361h-4.205
			c-0.28,0.04-0.42,0.193-0.42,0.461v0.281h4.736c0.127,0.007,0.189,0.084,0.189,0.231v1.313c-0.008,0.135-0.066,0.209-0.18,0.222
			h-4.768v0.231c0,0.207,0.047,0.353,0.141,0.437s0.237,0.124,0.433,0.124h4.063c0.112,0,0.191,0.025,0.235,0.076
			c0.043,0.05,0.067,0.132,0.075,0.246v1.595c-0.014,0.241-0.1,0.368-0.262,0.382H95.9c-0.93,0-1.553-0.525-1.867-1.576
			c-0.073-0.246-0.11-0.447-0.11-0.602v-3.441c0-0.429,0.058-0.803,0.17-1.124c0.107-0.313,0.265-0.558,0.472-0.731
			c0.209-0.175,0.42-0.303,0.638-0.387c0.217-0.084,0.487-0.137,0.808-0.156L100.838,10.486L100.838,10.486z"/>
		<path fill="#FFFFFF" d="M103.188,18.504h-1.166c-0.228,0-0.371-0.029-0.432-0.086s-0.09-0.202-0.09-0.438v-6.962
			c0-0.214,0.029-0.356,0.09-0.427c0.061-0.069,0.201-0.105,0.422-0.105h1.825c0.207,0,0.366,0.041,0.478,0.121
			c0.11,0.08,0.205,0.218,0.285,0.411l1.768,4.835v-4.847c0-0.221,0.031-0.361,0.096-0.426c0.063-0.063,0.205-0.096,0.426-0.096
			h0.963c0.234,0,0.383,0.034,0.441,0.101c0.061,0.066,0.092,0.211,0.092,0.432v6.962c0,0.188-0.031,0.322-0.092,0.401
			c-0.059,0.081-0.166,0.121-0.32,0.121h-2.098c-0.18,0-0.311-0.03-0.391-0.09c-0.08-0.062-0.16-0.185-0.24-0.372l-1.536-4.194
			v4.133c0,0.234-0.032,0.379-0.097,0.434C103.548,18.467,103.408,18.497,103.188,18.504z"/>
		<path fill="#FFFFFF" d="M108.766,16.216c0-0.106,0.043-0.196,0.131-0.271c0.086-0.074,0.187-0.11,0.302-0.11h1.977
			c0.341,0,0.513,0.127,0.513,0.381v1.927c0,0.107-0.035,0.193-0.105,0.262s-0.162,0.101-0.275,0.101H109.2
			c-0.121,0-0.224-0.034-0.308-0.104s-0.125-0.155-0.125-0.256v-1.929H108.766z"/>
		<path fill="#FFFFFF" d="M117.404,12.313h-0.221c-0.201,0-0.363,0.012-0.485,0.036c-0.125,0.023-0.257,0.078-0.396,0.165
			s-0.245,0.236-0.315,0.446c-0.07,0.211-0.105,0.479-0.105,0.808h1.516c0.095,0,0.179,0.033,0.256,0.101
			c0.076,0.067,0.115,0.144,0.115,0.231v1.093c0,0.094-0.035,0.174-0.104,0.24c-0.07,0.067-0.158,0.101-0.267,0.101h-1.516v2.608
			c0,0.094-0.039,0.176-0.115,0.246c-0.076,0.069-0.17,0.105-0.274,0.105h-1.646c-0.101,0-0.183-0.03-0.246-0.092
			c-0.063-0.061-0.103-0.119-0.115-0.18l-0.021-0.091v0.011v-0.041v-2.568h-1.153c-0.113,0-0.207-0.031-0.281-0.096
			c-0.072-0.063-0.109-0.146-0.109-0.246V14.1c0-0.095,0.039-0.173,0.119-0.237c0.082-0.063,0.172-0.095,0.271-0.095h1.153
			c0-0.95,0.226-1.706,0.672-2.268c0.201-0.241,0.427-0.437,0.679-0.587c0.25-0.15,0.541-0.256,0.867-0.316
			c0.327-0.06,0.602-0.097,0.821-0.11c0.222-0.013,0.521-0.02,0.904-0.02c0.165,0,0.274,0.052,0.325,0.155
			c0.052,0.104,0.074,0.286,0.074,0.547c0,0.06-0.002,0.18-0.004,0.356c-0.004,0.177-0.006,0.323-0.006,0.437
			c0,0.093-0.037,0.175-0.115,0.246C117.604,12.277,117.512,12.313,117.404,12.313z"/>
		<path fill="#FFFFFF" d="M120.605,12.303c0,0.101-0.037,0.183-0.11,0.246c-0.074,0.063-0.166,0.095-0.281,0.095h-1.604
			c-0.113,0-0.207-0.032-0.281-0.1c-0.072-0.067-0.109-0.147-0.109-0.241v-1.485c0-0.093,0.039-0.175,0.115-0.246
			c0.076-0.069,0.17-0.104,0.275-0.104h1.604c0.106,0,0.199,0.035,0.277,0.104c0.075,0.071,0.114,0.153,0.114,0.246V12.303z
			 M120.605,18.172c0,0.096-0.037,0.176-0.11,0.242c-0.074,0.066-0.164,0.1-0.271,0.1h-1.617c-0.104,0-0.198-0.033-0.274-0.1
			s-0.115-0.146-0.115-0.242v-4.284c0-0.093,0.039-0.175,0.115-0.246c0.076-0.069,0.17-0.104,0.274-0.104h1.617
			c0.113,0,0.205,0.039,0.275,0.115c0.07,0.077,0.105,0.155,0.105,0.235V18.172L120.605,18.172z"/>
	</g>
</g>
<g id="template_iso" display="none">
	
		<image display="inline" overflow="visible" enable-background="new    " width="255" height="50" xlink:href="kirjastotfi-logo-sv.png"  transform="matrix(0.9999 0 0 0.9999 -24.3335 -212.0005)">
	</image>
</g>
</svg>
