<?xml version="1.0" encoding="utf-8"?>
<!-- Generator: Adobe Illustrator 15.1.0, SVG Export Plug-In . SVG Version: 6.00 Build 0)  -->
<!DOCTYPE svg PUBLIC "-//W3C//DTD SVG 1.1//EN" "http://www.w3.org/Graphics/SVG/1.1/DTD/svg11.dtd">
<svg version="1.1" id="Layer_1" xmlns="http://www.w3.org/2000/svg" xmlns:xlink="http://www.w3.org/1999/xlink" x="0px" y="0px"
	 width="77.252px" height="29px" viewBox="0 0 77.252 29" enable-background="new 0 0 77.252 29" xml:space="preserve">
<g>
	<path fill="#FFFFFF" d="M15.428,23.329c-0.017-1.521-0.302-1.846-5.019-3.193l0.358,5.377c0,1.436,1.354,1.986,2.738,2.641
		c1.411,0.596,1.896,0.834,1.92,0.846h0.001h0.001c0,0,0.51-0.25,1.921-0.846c1.384-0.654,2.737-1.205,2.737-2.641l0.359-5.377
		C15.73,21.483,15.445,21.808,15.428,23.329"/>
	<path fill="#FFFFFF" d="M15.428,9.82C15.376,5.143,14.5,4.143,0,0l1.103,16.534c0,4.27,3.907,5.994,8.017,7.924
		c-1.292-0.807-2.214-1.805-2.214-3.404L6.25,11.218c8.626,2.464,9.147,3.06,9.179,5.842c0.031-2.782,0.553-3.378,9.179-5.842
		l-0.656,9.836c0,1.6-0.922,2.598-2.214,3.404c4.11-1.93,8.016-3.654,8.016-7.924L30.856,0C16.357,4.143,15.48,5.143,15.428,9.82"/>
	<polygon fill="#FFFFFF" points="38.79,15.367 38.188,15.367 38.188,18.3 36.806,18.3 36.806,11.242 38.188,11.242 38.188,14.111 
		38.634,14.111 40.011,11.242 41.703,11.242 39.778,14.466 41.863,18.3 40.186,18.3 	"/>
	<rect x="42.639" y="11.242" fill="#FFFFFF" width="1.372" height="7.058"/>
	<path fill="#FFFFFF" d="M46.785,15.493V18.3h-1.377v-7.054h2.303c0.695,0,1.24,0.184,1.637,0.551
		c0.396,0.367,0.594,0.877,0.594,1.529c0,0.369-0.082,0.686-0.247,0.953c-0.165,0.266-0.406,0.479-0.723,0.637
		c0.361,0.123,0.623,0.327,0.783,0.61c0.159,0.285,0.24,0.641,0.24,1.066v0.5c0,0.193,0.021,0.402,0.067,0.623
		c0.045,0.221,0.124,0.383,0.237,0.482V18.3h-1.425c-0.113-0.104-0.185-0.271-0.214-0.504s-0.044-0.471-0.044-0.713v-0.479
		c0-0.354-0.071-0.627-0.215-0.82c-0.144-0.194-0.351-0.291-0.618-0.291H46.785z M46.785,14.393h0.922
		c0.28,0,0.494-0.086,0.64-0.257s0.218-0.415,0.218-0.731c0-0.324-0.072-0.58-0.218-0.771c-0.146-0.19-0.357-0.285-0.636-0.285
		h-0.926V14.393z"/>
	<path fill="#FFFFFF" d="M53.622,11.242h1.372v4.905c0,0.691-0.194,1.24-0.584,1.646c-0.389,0.404-0.88,0.607-1.471,0.607
		c-0.64,0-1.146-0.182-1.52-0.543s-0.554-0.895-0.541-1.6l0.015-0.029h1.343c0,0.373,0.065,0.645,0.196,0.814
		c0.131,0.172,0.3,0.258,0.507,0.258c0.188,0,0.349-0.102,0.482-0.307c0.134-0.203,0.2-0.486,0.2-0.848V11.242z"/>
	<path fill="#FFFFFF" d="M59.373,16.792h-1.861L57.133,18.3h-1.392l1.987-7.058h1.436l1.982,7.058h-1.392L59.373,16.792z
		 M57.792,15.692h1.299l-0.635-2.497h-0.029L57.792,15.692z"/>
	<path fill="#FFFFFF" d="M65.08,16.458c0-0.275-0.071-0.492-0.214-0.652s-0.393-0.317-0.751-0.473
		c-0.734-0.255-1.284-0.545-1.651-0.87c-0.366-0.324-0.55-0.779-0.55-1.364c0-0.579,0.214-1.05,0.64-1.413
		c0.427-0.364,0.972-0.545,1.634-0.545c0.672,0,1.219,0.202,1.639,0.607c0.42,0.406,0.623,0.917,0.611,1.535l-0.01,0.028h-1.339
		c0-0.323-0.08-0.585-0.242-0.785c-0.161-0.2-0.389-0.3-0.683-0.3c-0.275,0-0.489,0.082-0.644,0.249
		c-0.153,0.167-0.229,0.376-0.229,0.628c0,0.232,0.086,0.424,0.257,0.574s0.469,0.317,0.893,0.502
		c0.668,0.227,1.172,0.514,1.51,0.859c0.338,0.348,0.506,0.817,0.506,1.409c0,0.611-0.203,1.09-0.61,1.436s-0.948,0.518-1.624,0.518
		c-0.673,0-1.255-0.195-1.747-0.588c-0.493-0.393-0.731-0.957-0.716-1.69l0.01-0.028h1.343c0,0.436,0.093,0.75,0.276,0.939
		c0.185,0.191,0.462,0.287,0.834,0.287c0.291,0,0.507-0.078,0.647-0.232C65.009,16.933,65.08,16.724,65.08,16.458"/>
	<polygon fill="#FFFFFF" points="71.721,12.342 70.131,12.342 70.131,18.3 68.754,18.3 68.754,12.342 67.174,12.342 67.174,11.242 
		71.721,11.242 	"/>
	<path fill="#FFFFFF" d="M77.253,15.765c0,0.828-0.225,1.475-0.674,1.939s-1.047,0.697-1.794,0.697
		c-0.746,0-1.343-0.232-1.788-0.697c-0.446-0.465-0.669-1.111-0.669-1.939v-1.978c0-0.824,0.223-1.472,0.669-1.941
		c0.445-0.471,1.04-0.705,1.784-0.705c0.742,0,1.341,0.234,1.793,0.705c0.452,0.47,0.679,1.117,0.679,1.941V15.765z M75.881,13.771
		c0-0.506-0.094-0.887-0.281-1.145s-0.46-0.387-0.818-0.387c-0.362,0-0.634,0.129-0.815,0.385c-0.181,0.256-0.271,0.639-0.271,1.146
		v1.993c0,0.512,0.093,0.896,0.276,1.152c0.185,0.256,0.456,0.385,0.814,0.385c0.355,0,0.627-0.129,0.814-0.385
		s0.281-0.641,0.281-1.152V13.771z"/>
</g>
<g>
	<defs>
		<rect id="SVGID_1_" y="-63.167" width="356.5" height="155.334"/>
	</defs>
	<clipPath id="SVGID_2_">
		<use xlink:href="#SVGID_1_"  overflow="visible"/>
	</clipPath>
</g>
<g>
	<defs>
		<rect id="SVGID_3_" y="-63.167" width="356.5" height="155.334"/>
	</defs>
	<clipPath id="SVGID_4_">
		<use xlink:href="#SVGID_3_"  overflow="visible"/>
	</clipPath>
</g>
<g>
	<defs>
		<rect id="SVGID_5_" y="-63.167" width="356.5" height="155.334"/>
	</defs>
	<clipPath id="SVGID_6_">
		<use xlink:href="#SVGID_5_"  overflow="visible"/>
	</clipPath>
</g>
</svg>
