<?xml version="1.0" encoding="utf-8"?>
<!-- Generator: Adobe Illustrator 15.1.0, SVG Export Plug-In . SVG Version: 6.00 Build 0)  -->
<!DOCTYPE svg PUBLIC "-//W3C//DTD SVG 1.1//EN" "http://www.w3.org/Graphics/SVG/1.1/DTD/svg11.dtd">
<svg version="1.1" id="Layer_1" xmlns="http://www.w3.org/2000/svg" xmlns:xlink="http://www.w3.org/1999/xlink" x="0px" y="0px"
	 width="79.915px" height="29px" viewBox="0 0 79.915 29" enable-background="new 0 0 79.915 29" xml:space="preserve">
<g>
	<path fill="#FFFFFF" d="M15.428,23.329c-0.017-1.521-0.302-1.846-5.019-3.194l0.359,5.378c0,1.435,1.354,1.986,2.738,2.64
		c1.411,0.596,1.896,0.834,1.92,0.846l0.001,0.001L15.429,29c0,0,0.511-0.252,1.921-0.848c1.384-0.653,2.738-1.205,2.738-2.64
		l0.358-5.378C15.73,21.483,15.445,21.808,15.428,23.329"/>
	<path fill="#FFFFFF" d="M15.428,9.819C15.376,5.143,14.5,4.142,0,0l1.103,16.533c0,4.271,3.907,5.995,8.018,7.925
		c-1.292-0.807-2.215-1.806-2.215-3.403L6.25,11.218c8.626,2.464,9.147,3.059,9.179,5.843c0.031-2.784,0.553-3.379,9.179-5.843
		l-0.656,9.837c0,1.598-0.922,2.597-2.214,3.403c4.111-1.931,8.016-3.655,8.016-7.925L30.856,0
		C16.357,4.142,15.481,5.143,15.428,9.819"/>
	<path fill="#FFFFFF" d="M36.807,18.299v-7.058h2.08c0.728,0,1.295,0.161,1.704,0.485c0.409,0.323,0.613,0.804,0.613,1.443
		c0,0.337-0.075,0.635-0.223,0.895c-0.149,0.261-0.372,0.455-0.669,0.585c0.372,0.087,0.646,0.275,0.824,0.566
		c0.177,0.291,0.267,0.632,0.267,1.023c0,0.675-0.193,1.188-0.58,1.536c-0.386,0.35-0.939,0.523-1.66,0.523H36.807z M38.188,14.223
		h0.761c0.281-0.007,0.497-0.089,0.647-0.246c0.15-0.157,0.226-0.383,0.226-0.678c0-0.331-0.078-0.572-0.232-0.727
		c-0.155-0.154-0.39-0.231-0.703-0.231h-0.698V14.223z M38.188,15.188v2.012h0.975c0.291,0,0.508-0.081,0.652-0.243
		c0.144-0.161,0.216-0.401,0.216-0.722c0-0.336-0.062-0.595-0.184-0.775c-0.123-0.182-0.32-0.271-0.592-0.271H38.188z"/>
	<rect x="42.634" y="11.241" fill="#FFFFFF" width="1.372" height="7.058"/>
	<path fill="#FFFFFF" d="M45.398,18.299v-7.058h2.08c0.727,0,1.295,0.161,1.704,0.485c0.408,0.323,0.613,0.804,0.613,1.443
		c0,0.337-0.074,0.635-0.223,0.895c-0.149,0.261-0.372,0.455-0.669,0.585c0.372,0.087,0.646,0.275,0.824,0.566
		s0.267,0.632,0.267,1.023c0,0.675-0.193,1.188-0.579,1.536c-0.386,0.35-0.939,0.523-1.66,0.523H45.398z M46.78,14.223h0.761
		c0.281-0.007,0.497-0.089,0.647-0.246c0.15-0.157,0.226-0.383,0.226-0.678c0-0.331-0.078-0.572-0.232-0.727
		c-0.155-0.154-0.39-0.231-0.703-0.231H46.78V14.223z M46.78,15.188v2.012h0.975c0.291,0,0.508-0.081,0.652-0.243
		c0.144-0.161,0.216-0.401,0.216-0.722c0-0.336-0.062-0.595-0.185-0.775c-0.123-0.182-0.32-0.271-0.591-0.271H46.78z"/>
	<polygon fill="#FFFFFF" points="52.535,17.199 55.114,17.199 55.114,18.299 51.153,18.299 51.153,11.241 52.535,11.241 	"/>
	<rect x="56.124" y="11.241" fill="#FFFFFF" width="1.372" height="7.058"/>
	<path fill="#FFFFFF" d="M63.643,15.764c0,0.827-0.225,1.474-0.674,1.939c-0.449,0.465-1.047,0.698-1.794,0.698
		c-0.746,0-1.343-0.233-1.789-0.698c-0.446-0.466-0.669-1.112-0.669-1.939v-1.978c0-0.824,0.223-1.472,0.669-1.941
		c0.446-0.47,1.041-0.705,1.784-0.705c0.743,0,1.341,0.235,1.793,0.705c0.452,0.47,0.679,1.117,0.679,1.941V15.764z M62.271,13.771
		c0-0.506-0.094-0.888-0.281-1.146c-0.187-0.258-0.46-0.387-0.819-0.387c-0.362,0-0.634,0.129-0.814,0.385
		c-0.181,0.256-0.271,0.638-0.271,1.147v1.993c0,0.512,0.092,0.896,0.276,1.151c0.185,0.257,0.456,0.385,0.814,0.385
		c0.356,0,0.627-0.128,0.814-0.385c0.188-0.255,0.281-0.64,0.281-1.151V13.771z"/>
	<polygon fill="#FFFFFF" points="68.812,12.341 67.222,12.341 67.222,18.299 65.845,18.299 65.845,12.341 64.264,12.341 
		64.264,11.241 68.812,11.241 	"/>
	<polygon fill="#FFFFFF" points="73.476,15.201 71.105,15.201 71.105,17.199 73.893,17.199 73.893,18.299 69.724,18.299 
		69.724,11.241 73.883,11.241 73.883,12.341 71.105,12.341 71.105,14.102 73.476,14.102 	"/>
	<polygon fill="#FFFFFF" points="76.841,15.366 76.24,15.366 76.24,18.299 74.858,18.299 74.858,11.241 76.24,11.241 76.24,14.111 
		76.686,14.111 78.063,11.241 79.754,11.241 77.83,14.465 79.915,18.299 78.237,18.299 	"/>
</g>
<g>
	<defs>
		<rect id="SVGID_1_" width="364.252" height="155.339"/>
	</defs>
	<clipPath id="SVGID_2_">
		<use xlink:href="#SVGID_1_"  overflow="visible"/>
	</clipPath>
</g>
<g>
	<defs>
		<rect id="SVGID_3_" width="364.252" height="155.339"/>
	</defs>
	<clipPath id="SVGID_4_">
		<use xlink:href="#SVGID_3_"  overflow="visible"/>
	</clipPath>
</g>
</svg>
