<?xml version="1.0" encoding="utf-8"?>
<!-- Generator: Adobe Illustrator 15.1.0, SVG Export Plug-In . SVG Version: 6.00 Build 0)  -->
<!DOCTYPE svg PUBLIC "-//W3C//DTD SVG 1.1//EN" "http://www.w3.org/Graphics/SVG/1.1/DTD/svg11.dtd">
<svg version="1.1" id="Layer_1" xmlns="http://www.w3.org/2000/svg" xmlns:xlink="http://www.w3.org/1999/xlink" x="0px" y="0px"
	 width="72.448px" height="29px" viewBox="0 0 72.448 29" enable-background="new 0 0 72.448 29" xml:space="preserve">
<g>
	<path fill="#FFFFFF" d="M15.428,23.33c-0.017-1.521-0.302-1.847-5.019-3.194l0.359,5.378c0,1.434,1.354,1.985,2.738,2.639
		c1.411,0.596,1.896,0.835,1.92,0.846l0.001,0.001L15.429,29c0,0,0.51-0.252,1.921-0.848c1.384-0.653,2.738-1.205,2.738-2.639
		l0.358-5.378C15.73,21.483,15.445,21.809,15.428,23.33"/>
	<path fill="#FFFFFF" d="M15.428,9.82C15.376,5.143,14.5,4.143,0,0l1.103,16.533c0,4.271,3.907,5.995,8.018,7.925
		c-1.292-0.807-2.215-1.805-2.215-3.403L6.25,11.218c8.626,2.465,9.147,3.06,9.179,5.843c0.031-2.783,0.553-3.378,9.179-5.843
		l-0.656,9.837c0,1.599-0.922,2.597-2.214,3.403c4.11-1.93,8.016-3.654,8.016-7.925L30.856,0C16.357,4.143,15.481,5.143,15.428,9.82
		"/>
	<polygon fill="#FFFFFF" points="38.188,17.199 40.767,17.199 40.767,18.3 36.806,18.3 36.806,11.241 38.188,11.241 	"/>
	<rect x="41.776" y="11.241" fill="#FFFFFF" width="1.372" height="7.059"/>
	<path fill="#FFFFFF" d="M44.541,18.3v-7.059h2.08c0.727,0,1.295,0.162,1.704,0.485c0.409,0.323,0.613,0.805,0.613,1.444
		c0,0.336-0.074,0.634-0.223,0.895c-0.148,0.261-0.372,0.455-0.669,0.584c0.372,0.088,0.646,0.276,0.824,0.567
		s0.267,0.632,0.267,1.022c0,0.676-0.193,1.188-0.579,1.536c-0.386,0.35-0.94,0.524-1.661,0.524H44.541z M45.922,14.223h0.761
		c0.281-0.007,0.497-0.088,0.647-0.245s0.225-0.383,0.225-0.678c0-0.331-0.077-0.573-0.232-0.727
		c-0.155-0.154-0.389-0.231-0.703-0.231h-0.698V14.223z M45.922,15.188v2.012h0.974c0.291,0,0.508-0.08,0.652-0.242
		c0.144-0.162,0.216-0.402,0.216-0.723c0-0.336-0.062-0.594-0.185-0.775c-0.123-0.181-0.32-0.271-0.591-0.271H45.922z"/>
	<path fill="#FFFFFF" d="M51.677,15.493V18.3H50.3v-7.054h2.303c0.695,0,1.24,0.184,1.636,0.55c0.396,0.367,0.594,0.877,0.594,1.53
		c0,0.368-0.082,0.686-0.247,0.953c-0.165,0.266-0.405,0.479-0.722,0.637c0.362,0.123,0.623,0.327,0.783,0.61
		c0.16,0.285,0.24,0.641,0.24,1.066v0.5c0,0.194,0.022,0.401,0.067,0.623c0.045,0.221,0.125,0.382,0.238,0.481V18.3h-1.425
		c-0.113-0.104-0.184-0.271-0.213-0.504c-0.029-0.232-0.043-0.471-0.043-0.713v-0.479c0-0.353-0.072-0.626-0.216-0.819
		c-0.144-0.194-0.35-0.291-0.618-0.291H51.677z M51.677,14.393h0.921c0.281,0,0.494-0.086,0.64-0.257s0.218-0.416,0.218-0.732
		c0-0.323-0.073-0.58-0.218-0.771s-0.357-0.286-0.635-0.286h-0.925V14.393z"/>
	<path fill="#FFFFFF" d="M59.352,16.792H57.49L57.112,18.3h-1.391l1.987-7.059h1.435l1.983,7.059h-1.391L59.352,16.792z
		 M57.771,15.691h1.299l-0.635-2.496h-0.029L57.771,15.691z"/>
	<path fill="#FFFFFF" d="M63.304,15.493V18.3h-1.377v-7.054h2.303c0.695,0,1.241,0.184,1.637,0.55
		c0.396,0.367,0.594,0.877,0.594,1.53c0,0.368-0.083,0.686-0.248,0.953c-0.165,0.266-0.405,0.479-0.722,0.637
		c0.362,0.123,0.623,0.327,0.783,0.61c0.16,0.285,0.24,0.641,0.24,1.066v0.5c0,0.194,0.022,0.401,0.067,0.623
		c0.045,0.221,0.125,0.382,0.238,0.481V18.3h-1.425c-0.114-0.104-0.184-0.271-0.213-0.504s-0.044-0.471-0.044-0.713v-0.479
		c0-0.353-0.072-0.626-0.215-0.819c-0.144-0.194-0.35-0.291-0.619-0.291H63.304z M63.304,14.393h0.921
		c0.281,0,0.494-0.086,0.64-0.257c0.146-0.171,0.218-0.416,0.218-0.732c0-0.323-0.072-0.58-0.218-0.771
		c-0.146-0.19-0.357-0.286-0.635-0.286h-0.925V14.393z"/>
	<polygon fill="#FFFFFF" points="69.742,14.267 69.771,14.267 70.949,11.241 72.447,11.241 70.43,15.788 70.43,18.3 69.054,18.3 
		69.054,15.701 67.071,11.241 68.578,11.241 	"/>
</g>
<g>
	<defs>
		<rect id="SVGID_1_" y="-155.339" width="338.5" height="155.339"/>
	</defs>
	<clipPath id="SVGID_2_">
		<use xlink:href="#SVGID_1_"  overflow="visible"/>
	</clipPath>
</g>
<g>
	<defs>
		<rect id="SVGID_3_" y="-155.339" width="338.5" height="155.339"/>
	</defs>
	<clipPath id="SVGID_4_">
		<use xlink:href="#SVGID_3_"  overflow="visible"/>
	</clipPath>
</g>
</svg>
